<svg xmlns="http://www.w3.org/2000/svg" xmlns:xlink="http://www.w3.org/1999/xlink" viewBox="0 0 395.86 252.07"><defs><style>.cls-1,.cls-2{fill:none;}.cls-1{clip-rule:evenodd;}.cls-3{fill:#0d2b69;}.cls-4{fill:#0c1c56;}.cls-5{fill:#09184c;}.cls-10,.cls-11,.cls-13,.cls-16,.cls-18,.cls-20,.cls-21,.cls-23,.cls-24,.cls-25,.cls-27,.cls-28,.cls-30,.cls-31,.cls-32,.cls-5,.cls-6,.cls-8,.cls-9{fill-rule:evenodd;}.cls-6{fill:#002e65;}.cls-10,.cls-7{fill:azure;}.cls-8{fill:#0079db;}.cls-9{fill:#005eb0;}.cls-11{fill:#003c89;}.cls-12{clip-path:url(#clip-path);}.cls-13{fill:#003476;}.cls-14{clip-path:url(#clip-path-2);}.cls-15,.cls-21{fill:#b6d4f4;}.cls-16{fill:#0072d0;}.cls-17{clip-path:url(#clip-path-3);}.cls-18{fill:#a5cffc;}.cls-19{clip-path:url(#clip-path-4);}.cls-20{fill:#61a8e9;}.cls-22{clip-path:url(#clip-path-5);}.cls-23{fill:#a3caef;}.cls-24{fill:#0f3353;}.cls-25{fill:#83baf2;}.cls-26{clip-path:url(#clip-path-6);}.cls-27{fill:#5aa4e7;}.cls-28{fill:#e5f2ff;}.cls-29{clip-path:url(#clip-path-7);}.cls-30{fill:#87b3dc;}.cls-31{fill:#0061b5;}.cls-32{fill:#00000d;}.cls-33{clip-path:url(#clip-path-8);}</style><clipPath id="clip-path" transform="translate(0 22.91)"><path class="cls-1" d="M228.11,180.05s-5.5,19.86-6.3,21.34c-1.09,2-8.29,2-8.74-.36L208.8,182.7Z"/></clipPath><clipPath id="clip-path-2" transform="translate(0 22.91)"><path class="cls-1" d="M194,184.66c.26,1.25,5.49,15.5,5.49,15.5,1.42,1.93,7,1.45,7.86,0L211,182.23S193.75,183.42,194,184.66Z"/></clipPath><clipPath id="clip-path-3" transform="translate(0 22.91)"><path class="cls-1" d="M187.42,130.58s-2.74,54-2.32,56c2.19,10.31,58.62,2.7,57.73-8.18L230.2,116.07Z"/></clipPath><clipPath id="clip-path-4" transform="translate(0 22.91)"><path class="cls-1" d="M201.12,170.11A.29.29,0,0,1,201,170a201.36,201.36,0,0,1-3.5-22.88c-.61-7.8-.17-8.6-.17-8.6.65-1.3,8.34-1.67,9.92-.9,0,0-.45,5.74,1,16.54.79,5.83,1.53,9.66,2,11.95a.67.67,0,0,1,.1.26l.43,1.94c.11.4.17.58.17.58h0l.81,3.7a.83.83,0,0,1-.61,1,.76.76,0,0,1-.94-.57l-.82-3.72-.77.17.67,4a.81.81,0,0,1-.65.93.76.76,0,0,1-.91-.62l-.68-4-.41.08.6,3.81a.82.82,0,0,1-.66.93.76.76,0,0,1-.9-.63l-.61-3.84-.33.05.56,3.79a.82.82,0,0,1-.67.92.76.76,0,0,1-.9-.63l-.58-3.89-.41,0,.59,3.65a.82.82,0,0,1-.66.93.76.76,0,0,1-.91-.62Z"/></clipPath><clipPath id="clip-path-5" transform="translate(0 22.91)"><path class="cls-1" d="M231.82,117.35c-2.35-11.64-8-20.42-14.55-28.45,0,0,1-8.41.25-11.62s-4.74-3.8-7.7.38a38,38,0,0,0-3.72,5.89,43.19,43.19,0,0,0-16.81,2.78c-8.29,3.34-6.73,2.49-6.73,2.49s-7.35-4.46-9.73-3c-1.12.72,3.12,9.69,3.12,9.69s-5.93,25.62,3.72,32.82c3.59,2.67,12.69,8.1,16.53,7.92,6.93-.34,24.25-6.15,29.89-13.39S231.82,117.35,231.82,117.35Z"/></clipPath><clipPath id="clip-path-6" transform="translate(0 22.91)"><path class="cls-1" d="M187.35,133s-3.53,3.11-.74,7,18.38,4.14,27.33,1.2c7.87-2.58,8.94-10.84,14.39-15.41,2.56-2.15,8,4.13,9.33,1,4.29-9.87-6.62-15-7.22-14-7.47,12.79-20.13,18.58-29.94,21S187.35,133,187.35,133Z"/></clipPath><clipPath id="clip-path-7" transform="translate(0 22.91)"><path class="cls-1" d="M187.48,166.47a212.73,212.73,0,0,1,.44-22.88A96.14,96.14,0,0,1,189,134c.85-1.17,9.18-1,10.6.07a89.85,89.85,0,0,0-2.35,18.3,183.34,183.34,0,0,0,.36,19.53.84.84,0,0,1-.74.87.77.77,0,0,1-.85-.71l-.3-4.51-.76,0,.09,4.84a.84.84,0,0,1-.78.83.76.76,0,0,1-.81-.75l-.08-4.87H193l0,4.64a.83.83,0,0,1-.79.82.76.76,0,0,1-.8-.76l0-4.69h-.33v4.65a.83.83,0,0,1-.8.82.77.77,0,0,1-.79-.77v-4.79l-.43,0,.06,4.56a.82.82,0,0,1-.78.83.77.77,0,0,1-.81-.76Z"/></clipPath><clipPath id="clip-path-8" transform="translate(0 22.91)"><path class="cls-2" d="M370,136.72a32.76,32.76,0,0,1-9.4,23l-.23.23a32.75,32.75,0,0,1-23.24,9.63H311.56a22.16,22.16,0,0,1,9.19,42.33,23.8,23.8,0,0,1-3.22,1.18,22.58,22.58,0,0,1-6,.81H139.86a22.16,22.16,0,0,1-16.74-36.68l.42-.47c.21-.23.43-.46.65-.68a22.09,22.09,0,0,1,15.67-6.49H82.35a32.88,32.88,0,0,1,0-65.75H32.87a32.87,32.87,0,0,1,0-65.74h93.62a19.05,19.05,0,0,1,0-38.1H281a19.05,19.05,0,0,1,0,38.1h64.41a32.87,32.87,0,1,1,0,65.74h-8.3A32.88,32.88,0,0,1,370,136.72Z"/></clipPath></defs><g id="Layer_2" data-name="Layer 2"><g id="Layer_1-2" data-name="Layer 1"><path class="cls-3" d="M370,136.72a32.73,32.73,0,0,1-9.41,23l-.22.23a32.78,32.78,0,0,1-23.25,9.63H311.56a22.16,22.16,0,0,1,9.19,42.33,23.8,23.8,0,0,1-3.22,1.18,22.58,22.58,0,0,1-6,.81H139.86a22.12,22.12,0,0,1-22.08-20.27c0-.64-.08-1.27-.08-1.89a22.06,22.06,0,0,1,5.42-14.52l.42-.47c.21-.23.42-.46.65-.68a22.09,22.09,0,0,1,15.67-6.49H82.35a32.88,32.88,0,1,1,0-65.75H32.87a32.87,32.87,0,1,1,0-65.74h93.62a19.05,19.05,0,0,1,0-38.1H281a19.05,19.05,0,0,1,0,38.1h64.41a32.87,32.87,0,1,1,0,65.74h-8.31A32.88,32.88,0,0,1,370,136.72Z" transform="translate(0 22.91)"/><path class="cls-4" d="M360.55,159.73l-.23.23a32.75,32.75,0,0,1-23.24,9.63H311.56a22.16,22.16,0,0,1,9.19,42.33H301.63V159.73h1.68V143.86H308V116.32h23.59v27.54h12.65v15.87h5.9V150.4h6.32v9.33Z" transform="translate(0 22.91)"/><path class="cls-5" d="M333.72,191.75a22.18,22.18,0,0,1-13,20.17,23.8,23.8,0,0,1-3.22,1.18,22.58,22.58,0,0,1-6,.81H139.86a22.12,22.12,0,0,1-22.08-20.27c0-.64-.08-1.27-.08-1.89a22.06,22.06,0,0,1,5.42-14.52l.42-.47H327.87A22.08,22.08,0,0,1,333.72,191.75Z" transform="translate(0 22.91)"/><path class="cls-4" d="M301.63,106.28v70.95H123.12l.42-.47c.21-.23.43-.46.65-.68a22.09,22.09,0,0,1,15.67-6.49H82.35a32.88,32.88,0,0,1,0-65.75H34V51.66h1.69V35.79h4.63V8.25H64V35.79H76.59V51.66H82.5V42.33h6.32v9.33h4.63V78.2h27.39V58.66h3V42.79H133.9V58.66h27.39v91H173.1V91.81h52.67v14.47h22.34V90.87h4.63v-7h13.49v7h25.28v15.41Z" transform="translate(0 22.91)"/><path class="cls-6" d="M200.87,198.8s-8.39,2.47-7.52,5.37c.66,2.21,12.2,1.9,14-.09.43-.48.07-4.09.07-4.09Z" transform="translate(0 22.91)"/><path class="cls-6" d="M215.26,200.26s-7.19,3.42-6.93,6.43c.14,1.59,7,1.62,10.3.44s3.29-1.9,3.26-2.55-.12-3.13-.12-3.13Z" transform="translate(0 22.91)"/><path class="cls-7" d="M124.46,78.25l-.1,0a.3.3,0,0,1-.18-.38l.8-2.27a.3.3,0,0,1,.56.19l-.8,2.28A.3.3,0,0,1,124.46,78.25Z" transform="translate(0 22.91)"/><path class="cls-7" d="M144.84,81.31h0a.29.29,0,0,1-.26-.33l.36-2.71a.3.3,0,0,1,.33-.26.3.3,0,0,1,.26.34l-.36,2.7A.3.3,0,0,1,144.84,81.31Z" transform="translate(0 22.91)"/><path class="cls-7" d="M169.13,81.7h0a.3.3,0,0,1-.3-.3l0-3.08a.29.29,0,0,1,.3-.29h0a.3.3,0,0,1,.3.3l0,3.07A.29.29,0,0,1,169.13,81.7Z" transform="translate(0 22.91)"/><path class="cls-7" d="M193.52,81.71a.3.3,0,0,1-.3-.28l-.16-2.84a.3.3,0,0,1,.28-.32.31.31,0,0,1,.31.28l.16,2.84a.3.3,0,0,1-.28.32Z" transform="translate(0 22.91)"/><path class="cls-7" d="M238.08,79.3a.29.29,0,0,1-.29-.22l-.58-2.26a.29.29,0,1,1,.57-.15l.58,2.26a.28.28,0,0,1-.21.36Z" transform="translate(0 22.91)"/><path class="cls-8" d="M188.93,134.78a4.93,4.93,0,0,1,9.56,1.89c-.23,6.54-.56,16-.56,16s-1.19,6.8-10.52,5.44S177.46,144,177.46,144a19.15,19.15,0,0,1,5.55-3.1c.82-.3,1.49,3.08,2.22,2.21a73.15,73.15,0,0,0,3.7-8.29Z" transform="translate(0 22.91)"/><path class="cls-9" d="M177.8,142.26s-.56,3.5,1.93,4.68,5.5.28,5.27-1a11.77,11.77,0,0,0-1.57-4C183,141.63,177.8,142.26,177.8,142.26Z" transform="translate(0 22.91)"/><path class="cls-10" d="M181.52,35.18a.89.89,0,0,1,.81,1l-.8,106.36c.19,5-3.66,6-6.24,4.08a3.47,3.47,0,0,1-1.51-3.7c.33-.76,1-.49,1.08-.13a3.27,3.27,0,0,0,1.25,2.13c1.57,1.31,4,.67,4.08-2.27l.5-106.48A.9.9,0,0,1,181.52,35.18Z" transform="translate(0 22.91)"/><path class="cls-11" d="M228.11,180.05s-5.5,19.86-6.3,21.34c-1.09,2-8.29,2-8.74-.36L208.8,182.7Z" transform="translate(0 22.91)"/><g class="cls-12"><path class="cls-13" d="M224.89,181.85c-1.43,10-4.74,18.65-12.91,20.4l12.49,3.54,2.79-19.23Z" transform="translate(0 22.91)"/></g><path class="cls-11" d="M194,184.66c.26,1.25,5.49,15.5,5.49,15.5,1.42,1.93,7,1.45,7.86,0L211,182.23S193.75,183.42,194,184.66Z" transform="translate(0 22.91)"/><g class="cls-14"><path class="cls-13" d="M209.26,179.72c-1.43,10-4.74,18.65-12.91,20.39l12.5,3.55Z" transform="translate(0 22.91)"/></g><path class="cls-15" d="M239.78,181.4l-3.3-1a11.79,11.79,0,0,0,8.26-3.46l-1.27-.21a12.26,12.26,0,0,0,6.09-5.42l-1.46,0a22.87,22.87,0,0,0,5.78-14.93l-1.35,1.43a13.07,13.07,0,0,0,.54-11.25c-.63,3-3,5.5-5.65,7.49s-5.78,3.57-8.57,5.47a34.91,34.91,0,0,0-10.67,11.32,20,20,0,0,1-3,4.44c-1.05,1-4.33,1.66-3.83,2.88s4.27,2.39,5.59,2.82a24.19,24.19,0,0,0,6.36,1.13,23.13,23.13,0,0,0,3.43-.1C237.39,181.86,239.26,181.24,239.78,181.4Z" transform="translate(0 22.91)"/><path class="cls-16" d="M187.42,130.58s-2.74,54-2.32,56c2.19,10.31,58.62,2.7,57.73-8.18L230.2,116.07Z" transform="translate(0 22.91)"/><g class="cls-17"><path class="cls-9" d="M201.82,135.59l1.07-.25c9.81-2.45,22.47-8.24,29.94-21,.59-1,11.51,4.09,7.22,14-1.38,3.16-6.78-3.12-9.34-1-3.68,3.1-5.37,7.89-8.52,11.46a14,14,0,0,1-2.17,2,12.63,12.63,0,0,1-3.69,1.92,39.24,39.24,0,0,1-6.68,1.48c.1,2.75.37,6.59,1,11.45.79,5.83,1.53,9.67,2,12a.71.71,0,0,1,.11.25l.43,1.95c.11.4.17.58.17.58h0l.81,3.69a.83.83,0,0,1-.61,1,.76.76,0,0,1-.94-.58l-.82-3.72-.78.18.68,4.05a.82.82,0,0,1-.65.93.76.76,0,0,1-.91-.62l-.68-4-.41.08.6,3.81a.83.83,0,0,1-.66.93.76.76,0,0,1-.9-.63l-.61-3.84-.34,0,.57,3.79a.83.83,0,0,1-.67.92.76.76,0,0,1-.9-.64l-.58-3.89c-.14,0-.28,0-.42,0l.6,3.65a.83.83,0,0,1-.66.93.77.77,0,0,1-.91-.63l-.68-4.18a.33.33,0,0,1-.1-.14A204,204,0,0,1,200,149.09c-.12,1.5-.22,3.1-.28,4.79a182.07,182.07,0,0,0,.35,19.53.83.83,0,0,1-.74.87.77.77,0,0,1-.84-.71l-.3-4.51-.76,0,.08,4.85a.83.83,0,0,1-.78.83.77.77,0,0,1-.8-.75l-.08-4.87h-.41l0,4.63a.82.82,0,0,1-.78.83.76.76,0,0,1-.8-.76l0-4.7h-.33v4.65a.83.83,0,0,1-.8.82.76.76,0,0,1-.79-.77v-4.79l-.42,0,.06,4.57a.84.84,0,0,1-.79.83.77.77,0,0,1-.8-.76l-.07-5.67a212.91,212.91,0,0,1,.44-22.89c.08-.85.15-1.64.22-2.35A4.58,4.58,0,0,1,189,141.5a5.23,5.23,0,0,1,.74-7,5.28,5.28,0,0,0,1.73,1C192.44,134.4,199.88,134.69,201.82,135.59Z" transform="translate(0 22.91)"/><path class="cls-9" d="M224.7,168.21c-2.14-.34-2.4-.85-2.4-.85s-1.63-28.59,1.61-35.15a10.65,10.65,0,0,1,6-5.22,4.95,4.95,0,0,1,6.61,3.67l6.68,34.39s-1,2.63-8.89,3.28c.37,1.34.75,3.11.42,3.65-.56.9-1.66.09-1.66.09a1.8,1.8,0,0,1-2.58.75s-.44,1.31-3.06-.13C226,171.93,225.18,169.93,224.7,168.21Z" transform="translate(0 22.91)"/></g><path class="cls-18" d="M201.12,170.11A.29.29,0,0,1,201,170a201.36,201.36,0,0,1-3.5-22.88c-.61-7.8-.17-8.6-.17-8.6.65-1.3,8.34-1.67,9.92-.9,0,0-.45,5.74,1,16.54.79,5.83,1.53,9.66,2,11.95a.67.67,0,0,1,.1.26l.43,1.94c.11.4.17.58.17.58h0l.81,3.7a.83.83,0,0,1-.61,1,.76.76,0,0,1-.94-.57l-.82-3.72-.77.17.67,4a.81.81,0,0,1-.65.93.76.76,0,0,1-.91-.62l-.68-4-.41.08.6,3.81a.82.82,0,0,1-.66.93.76.76,0,0,1-.9-.63l-.61-3.84-.33.05.56,3.79a.82.82,0,0,1-.67.92.76.76,0,0,1-.9-.63l-.58-3.89-.41,0,.59,3.65a.82.82,0,0,1-.66.93.76.76,0,0,1-.91-.62Z" transform="translate(0 22.91)"/><g class="cls-19"><path class="cls-20" d="M212.13,164.66a126.76,126.76,0,0,0-12.88,2.16l.3,1.77a89.57,89.57,0,0,1,12.87-2.16Z" transform="translate(0 22.91)"/><path class="cls-20" d="M210.42,159.13a126.1,126.1,0,0,0-12.87,2.16l.3,1.76a91,91,0,0,1,12.87-2.15Z" transform="translate(0 22.91)"/><path class="cls-20" d="M209.5,152.66a128.92,128.92,0,0,0-12.87,2.16l.3,1.77a89.57,89.57,0,0,1,12.87-2.16Z" transform="translate(0 22.91)"/><path class="cls-20" d="M208.59,145.54a126.76,126.76,0,0,0-12.88,2.16l.3,1.76a91,91,0,0,1,12.87-2.15Z" transform="translate(0 22.91)"/><path class="cls-20" d="M207.19,137.84A126.56,126.56,0,0,0,194.32,140l.3,1.77a89.57,89.57,0,0,1,12.87-2.16Z" transform="translate(0 22.91)"/></g><path class="cls-21" d="M225.07,162.9s.66,5.92,3.28,7.36,3.05.13,3.05.13a1.81,1.81,0,0,0,2.59-.75s1.09.81,1.65-.09-.89-5.25-.89-5.25Z" transform="translate(0 22.91)"/><path class="cls-21" d="M231.82,117.35c-2.35-11.64-8-20.42-14.55-28.45,0,0,1-8.41.25-11.62s-4.74-3.8-7.7.38a38,38,0,0,0-3.72,5.89,43.19,43.19,0,0,0-16.81,2.78c-8.29,3.34-6.73,2.49-6.73,2.49s-7.35-4.46-9.73-3c-1.12.72,3.12,9.69,3.12,9.69s-5.93,25.62,3.72,32.82c3.59,2.67,12.69,8.1,16.53,7.92,6.93-.34,24.25-6.15,29.89-13.39S231.82,117.35,231.82,117.35Z" transform="translate(0 22.91)"/><g class="cls-22"><path class="cls-23" d="M227.29,101.13c-1.85,23.74-32,37.3-52.19,27.49,1.31,5.94,6.4,9.38,16.22,9.08,0,0,29.63-9.71,31-10S237.76,112,237.76,112C236.29,106.19,233.36,102,227.29,101.13Z" transform="translate(0 22.91)"/></g><path class="cls-7" d="M217.59,82.06a.28.28,0,0,1-.29-.26l-.39-3.25a.3.3,0,0,1,.59-.07l.39,3.25a.3.3,0,0,1-.26.33Z" transform="translate(0 22.91)"/><path class="cls-24" d="M181.31,108.27a5.54,5.54,0,0,1,.06,1c-.09,2.09-1.43,3.77-3,3.76s-2.75-1.72-2.67-3.81a.25.25,0,0,1,0-.08,7.6,7.6,0,0,0,2.22.14A7.44,7.44,0,0,0,181.31,108.27Z" transform="translate(0 22.91)"/><path class="cls-24" d="M190.49,107.12a4.73,4.73,0,0,0-.14,1c-.09,2.09,1.11,3.8,2.67,3.81s2.89-1.67,3-3.77v-.08a7.75,7.75,0,0,1-2.23.11A6.81,6.81,0,0,1,190.49,107.12Z" transform="translate(0 22.91)"/><path class="cls-25" d="M187.35,133s-3.53,3.11-.74,7,18.38,4.14,27.33,1.2c7.87-2.58,8.94-10.84,14.39-15.41,2.56-2.15,8,4.13,9.33,1,4.29-9.87-6.62-15-7.22-14-7.47,12.79-20.13,18.58-29.94,21S187.35,133,187.35,133Z" transform="translate(0 22.91)"/><g class="cls-26"><path class="cls-27" d="M201.9,132.54A129.24,129.24,0,0,1,205,145.48l-1.79.42A90.6,90.6,0,0,0,200.11,133Z" transform="translate(0 22.91)"/><path class="cls-27" d="M187.94,130.63a129.19,129.19,0,0,1-3.19,12.9l-1.78-.44a91.13,91.13,0,0,0,3.18-12.91Z" transform="translate(0 22.91)"/><path class="cls-27" d="M206.43,131.15a131.07,131.07,0,0,1,5.32,12.17l-1.69.74a91.12,91.12,0,0,0-5.32-12.18Z" transform="translate(0 22.91)"/><path class="cls-27" d="M212.5,128.32a130.09,130.09,0,0,1,5.32,12.18l-1.69.73a91.12,91.12,0,0,0-5.32-12.18Z" transform="translate(0 22.91)"/><path class="cls-27" d="M219.13,125.12a126.11,126.11,0,0,1,5.32,12.18l-1.68.73a92.43,92.43,0,0,0-5.32-12.18Z" transform="translate(0 22.91)"/><path class="cls-27" d="M224.68,118.16A129.76,129.76,0,0,1,230,130.34l-1.69.74A92.37,92.37,0,0,0,223,118.9Z" transform="translate(0 22.91)"/><path class="cls-27" d="M228.91,113.18c3.53,4.48,6.85,9.09,10,13.82l-1.49,1.07a151.91,151.91,0,0,0-10-13.82Z" transform="translate(0 22.91)"/></g><path class="cls-28" d="M188.85,114.72c-3-1.44-14.94-.44-16.32,3.63-1.5,4.38,6,15.43,14.64,13.65C200,129.35,192.49,116.45,188.85,114.72Z" transform="translate(0 22.91)"/><path class="cls-8" d="M229.2,125.47a4.95,4.95,0,0,1,7,3.8c1.42,10.15,4.68,33.49,4.68,33.49s2,2.62-7.46,3-10.14-.82-10.14-.82-1.63-28.59,1.61-35.16A8.87,8.87,0,0,1,229.2,125.47Z" transform="translate(0 22.91)"/><path class="cls-18" d="M187.48,166.47a212.73,212.73,0,0,1,.44-22.88A96.14,96.14,0,0,1,189,134c.85-1.17,9.18-1,10.6.07a89.85,89.85,0,0,0-2.35,18.3,183.34,183.34,0,0,0,.36,19.53.84.84,0,0,1-.74.87.77.77,0,0,1-.85-.71l-.3-4.51-.76,0,.09,4.84a.84.84,0,0,1-.78.83.76.76,0,0,1-.81-.75l-.08-4.87H193l0,4.64a.83.83,0,0,1-.79.82.76.76,0,0,1-.8-.76l0-4.69h-.33v4.65a.83.83,0,0,1-.8.82.77.77,0,0,1-.79-.77v-4.79l-.43,0,.06,4.56a.82.82,0,0,1-.78.83.77.77,0,0,1-.81-.76Z" transform="translate(0 22.91)"/><g class="cls-29"><path class="cls-20" d="M198.91,164.25a126.31,126.31,0,0,0-13-.77l-.11,1.79a90.34,90.34,0,0,1,13,.77Z" transform="translate(0 22.91)"/><path class="cls-20" d="M198.49,158.48a126.51,126.51,0,0,0-13-.77l-.11,1.79a90.34,90.34,0,0,1,13,.77Z" transform="translate(0 22.91)"/><path class="cls-20" d="M199,152a126.51,126.51,0,0,0-13-.77L185.9,153a90.34,90.34,0,0,1,13,.77Z" transform="translate(0 22.91)"/><path class="cls-20" d="M199.73,144.82a126.15,126.15,0,0,0-13-.77l-.11,1.79a90.34,90.34,0,0,1,13,.77Z" transform="translate(0 22.91)"/><path class="cls-20" d="M200.1,137a126.51,126.51,0,0,0-13-.77L187,138a90.34,90.34,0,0,1,13,.77Z" transform="translate(0 22.91)"/></g><path class="cls-30" d="M208.82,84s4.33-8,6.32-6.59.13,10.25.13,10.25A9.52,9.52,0,0,0,208.82,84Z" transform="translate(0 22.91)"/><path class="cls-16" d="M145,79.91c3.75-26.07,15.15-34.76,36.56-40.7C153.12,39,129.35,55.38,124.45,77.1a17.21,17.21,0,0,1,8.49-2.2A17.65,17.65,0,0,1,145,79.91Z" transform="translate(0 22.91)"/><path class="cls-31" d="M181.57,39.21c-21.41,5.94-32.81,14.63-36.56,40.7a17.29,17.29,0,0,1,24.16.18C169.42,65.54,172.88,51.76,181.57,39.21Z" transform="translate(0 22.91)"/><path class="cls-16" d="M181.57,39.21c-8.69,12.55-12.15,26.33-12.4,40.88a17.31,17.31,0,0,1,24.18.18C193.34,65.72,190.09,51.89,181.57,39.21Z" transform="translate(0 22.91)"/><path class="cls-31" d="M181.57,39.21c8.52,12.68,11.77,26.51,11.78,41.06a17.33,17.33,0,0,1,24.19.18C214.18,54.33,202.89,45.47,181.57,39.21Z" transform="translate(0 22.91)"/><path class="cls-16" d="M181.57,39.21c21.32,6.26,32.61,15.12,36,41.24a17.68,17.68,0,0,1,12.12-4.83A17.13,17.13,0,0,1,238.12,78C233.55,56.15,210,39.42,181.57,39.21Z" transform="translate(0 22.91)"/><path class="cls-18" d="M177.19,143.75c-.51-.72-2.16-6.31.56-7.72,4.47-2.33,6.75-.91,5.88,1.45,1.26-.18,2.11,3.86.34,4.06,0,0,.91,0,1.08,1.44.16,1.3-2.91,2.14-4.51,2.21A4,4,0,0,1,177.19,143.75Z" transform="translate(0 22.91)"/><path class="cls-32" d="M175.62,119.9a14.59,14.59,0,0,0,3.51,7,.08.08,0,0,0,.12-.1,14.57,14.57,0,0,1-3.48-6.94.07.07,0,0,0-.09-.06A.08.08,0,0,0,175.62,119.9Z" transform="translate(0 22.91)"/><path class="cls-32" d="M182.36,127.37a3.79,3.79,0,0,0-3.33-.54,1.67,1.67,0,0,0-1.19,1.54.08.08,0,0,0,.15,0,1.52,1.52,0,0,1,1.1-1.4,3.63,3.63,0,0,1,3.18.51.08.08,0,0,0,.11,0A.07.07,0,0,0,182.36,127.37Z" transform="translate(0 22.91)"/><path class="cls-24" d="M179.79,119.32a2,2,0,0,0-.07-1.88,2,2,0,0,0-1.6-1c-1.94-.12-5.26-.19-5.78.77-.74,1.36.88,5.09,2.48,5.27s4.22-1.62,5-3.17Z" transform="translate(0 22.91)"/><path class="cls-32" d="M197.16,107.58a6.79,6.79,0,0,1-4.85.31,3.09,3.09,0,0,1-2.3-1.72.08.08,0,0,0-.1,0s-.07.06,0,.1a3.26,3.26,0,0,0,2.4,1.83,7.08,7.08,0,0,0,5-.33.08.08,0,1,0-.08-.14Z" transform="translate(0 22.91)"/><path class="cls-32" d="M175,109.14a9.27,9.27,0,0,0,7.58-1.59.09.09,0,0,0,0-.11.07.07,0,0,0-.11,0,9.12,9.12,0,0,1-7.46,1.56.07.07,0,0,0-.09.06A.08.08,0,0,0,175,109.14Z" transform="translate(0 22.91)"/><g class="cls-33"><path class="cls-15" d="M227.45-18.19,217.13,9.13c0,.12.14.17.19,0L227.6-18.15c0-.1-.12-.14-.15,0Z" transform="translate(0 22.91)"/><path class="cls-15" d="M286-21.59,275.68,5.73c0,.12.15.17.2,0Q281-7.88,286.16-21.54c0-.1-.12-.14-.16-.05Z" transform="translate(0 22.91)"/><path class="cls-15" d="M201.5,1.13l-5.58,14.12c0,.14.18.21.24.06q2.76-7.07,5.53-14.12c.05-.12-.15-.18-.19-.06Z" transform="translate(0 22.91)"/><path class="cls-15" d="M171.1,20.31q-3.89,10.17-7.65,20.37c0,.13.15.18.19.06,2.59-6.78,5.11-13.58,7.61-20.38,0-.1-.12-.14-.15-.05Z" transform="translate(0 22.91)"/><path class="cls-15" d="M133.89,77.3c-3.18,8.39-6.39,16.77-9.46,25.2-.07.19.24.28.31.08,3.19-8.38,6.25-16.81,9.34-25.23,0-.12-.15-.17-.19,0Z" transform="translate(0 22.91)"/><path class="cls-15" d="M97.2,36.67a0,0,0,1,0,0,0,0,0,0,1,0,0,0Z" transform="translate(0 22.91)"/><path class="cls-15" d="M141.45,24.8l-6.69,17.37c0,.12.14.17.19,0l6.66-17.38c0-.09-.12-.13-.16,0Z" transform="translate(0 22.91)"/><path class="cls-15" d="M107.88,70c-1.84,4.82-3.7,9.62-5.48,14.46-.05.15.18.21.23.07,1.84-4.82,3.59-9.66,5.37-14.5,0-.07-.09-.1-.12,0Z" transform="translate(0 22.91)"/><path class="cls-15" d="M93.11,42.46c-1.82,4.82-3.67,9.63-5.43,14.48,0,.1.12.14.16,0,1.85-4.81,3.62-9.65,5.42-14.48,0-.09-.12-.13-.15,0Z" transform="translate(0 22.91)"/><path class="cls-15" d="M112.78,24.15l-4,10.73c0,.12.15.17.2,0q2-5.35,4-10.72c0-.12-.14-.18-.19-.06Z" transform="translate(0 22.91)"/><path class="cls-15" d="M250,4l-4.86,13.77c0,.1.12.14.16,0q2.41-6.88,4.85-13.77A.08.08,0,1,0,250,4Z" transform="translate(0 22.91)"/><path class="cls-15" d="M261.85,2.3,257,16.07c0,.1.12.14.16.05q2.43-6.9,4.85-13.78c0-.09-.12-.14-.15,0Z" transform="translate(0 22.91)"/><path class="cls-15" d="M272.86,16.24c-1.83,4.82-3.71,9.62-5.46,14.47-.06.17.21.24.28.07,1.87-4.79,3.6-9.65,5.38-14.48,0-.12-.15-.18-.2-.06Z" transform="translate(0 22.91)"/><path class="cls-15" d="M300.85,18.17c-3.1,9.12-6.44,18.17-9.88,27.17-.06.15.18.21.23.07,3.57-9,6.83-18,9.92-27.17.06-.17-.21-.24-.27-.07Z" transform="translate(0 22.91)"/><path class="cls-15" d="M295.76-11.53c-3.11,9.12-6.44,18.16-9.88,27.17-.06.14.17.2.23.06,3.56-9,6.83-18,9.92-27.16.06-.17-.21-.24-.27-.07Z" transform="translate(0 22.91)"/><path class="cls-15" d="M319.69,104.7,312.94,122c-.05.15.18.21.24.07q3.38-8.67,6.74-17.35c.06-.14-.18-.2-.23-.06Z" transform="translate(0 22.91)"/><path class="cls-15" d="M302.77,92.86q-3.56,9.21-7.1,18.43c-.05.12.15.18.19.06q3.54-9.22,7.06-18.45c0-.1-.12-.14-.15,0Z" transform="translate(0 22.91)"/><path class="cls-15" d="M269.23,52.17C267.14,57.71,265,63.23,263,68.78a.1.1,0,0,0,.19.06c2.12-5.52,4.14-11.09,6.19-16.63,0-.08-.09-.11-.12,0Z" transform="translate(0 22.91)"/><path class="cls-15" d="M289.73,81.56,282.9,99.78c0,.13.15.18.19.06q3.42-9.12,6.83-18.23c.05-.12-.15-.17-.19,0Z" transform="translate(0 22.91)"/><path class="cls-15" d="M240.18,152.56l-7.05,18.76c0,.12.15.18.19.06q3.51-9.39,7-18.77c0-.1-.12-.14-.15-.05Z" transform="translate(0 22.91)"/><path class="cls-15" d="M273.55,111.88c-2.38,6.44-4.78,12.88-7.12,19.34-.05.15.18.21.23.06,2.4-6.43,4.73-12.9,7.08-19.35.05-.12-.15-.17-.19-.05Z" transform="translate(0 22.91)"/><path class="cls-15" d="M210.42,125.22l-3,8c0,.07.09.1.12,0q1.5-4,3-8a.06.06,0,0,0-.12,0Z" transform="translate(0 22.91)"/><path class="cls-15" d="M198.73,97.91q-2.56,6.54-5.14,13.06c-.05.15.18.21.24.07L199,98c.06-.15-.18-.21-.23-.07Z" transform="translate(0 22.91)"/><path class="cls-15" d="M203.86,173.51l-5.62,15c-.06.15.18.21.23.07q2.81-7.51,5.62-15c.06-.14-.18-.21-.23-.06Z" transform="translate(0 22.91)"/><path class="cls-15" d="M185.28,184.27,181,195.51c0,.08.08.11.11,0l4.27-11.23a.06.06,0,1,0-.11,0Z" transform="translate(0 22.91)"/><path class="cls-15" d="M151.18,202.08c-3.14,8.3-6.31,16.59-9.3,24.94,0,.13.15.17.19.06,3.24-8.27,6.29-16.6,9.38-24.93.06-.17-.21-.24-.27-.07Z" transform="translate(0 22.91)"/><path class="cls-15" d="M128.17,199.57c-.84,2.44-1.69,4.87-2.53,7.31,0,.12.15.18.2.05l2.52-7.31c0-.12-.15-.17-.19-.05Z" transform="translate(0 22.91)"/><path class="cls-15" d="M104.88,130.63q-2.86,7.94-5.75,15.88c0,.1.12.14.16,0q2.86-7.94,5.75-15.88c0-.1-.12-.14-.16,0Z" transform="translate(0 22.91)"/><path class="cls-15" d="M95.44,102.33l-6.06,16.08c0,.14.18.21.23.06q3-8,6-16.09c0-.1-.12-.14-.16,0Z" transform="translate(0 22.91)"/><path class="cls-15" d="M80.8,75.15C78.47,81.21,76.17,87.27,74,93.38c-.06.17.21.24.27.08,2.36-6,4.6-12.14,6.83-18.23.06-.17-.21-.25-.27-.08Z" transform="translate(0 22.91)"/><path class="cls-15" d="M70.63,49.94q-3,7.29-5.82,14.64c-.08.19.23.27.31.08q3-7.29,5.78-14.64c.07-.17-.2-.24-.27-.08Z" transform="translate(0 22.91)"/><path class="cls-15" d="M245.21-20.1c-.94,2.5-1.88,5-2.81,7.51-.05.12.14.17.19.05L245.4-20c0-.13-.15-.18-.19-.06Z" transform="translate(0 22.91)"/><path class="cls-15" d="M204.38-22.86c-.8,2.15-1.6,4.29-2.41,6.44,0,.1.12.14.16,0,.8-2.14,1.6-4.29,2.41-6.43,0-.1-.12-.14-.16-.05Z" transform="translate(0 22.91)"/><path class="cls-15" d="M227.18,16.56c-1.3,3.39-2.61,6.77-3.82,10.19-.05.15.18.2.24.06,1.33-3.37,2.57-6.78,3.81-10.19.05-.14-.18-.2-.23-.06Z" transform="translate(0 22.91)"/><path class="cls-15" d="M146.27,49.84l-3.35,9.45c0,.12.15.17.19.05l3.31-9.46c0-.1-.12-.14-.15,0Z" transform="translate(0 22.91)"/><path class="cls-15" d="M159.28,55a165,165,0,0,1-6,16.07c-.06.14.15.26.21.12a168.85,168.85,0,0,0,6-16.14c0-.12-.16-.17-.2,0Z" transform="translate(0 22.91)"/><path class="cls-15" d="M163.46-1.22c-1.75,3.94-3.27,8-4.8,12-.07.17.2.24.27.07,1.66-4,3.31-7.92,4.75-12,0-.13-.17-.22-.22-.09Z" transform="translate(0 22.91)"/><path class="cls-15" d="M314.16,134.42q-2.64,7-5.21,14c-.05.14.18.21.24.06q2.65-6.94,5.24-13.93c.06-.17-.21-.25-.27-.08Z" transform="translate(0 22.91)"/><path class="cls-15" d="M150.29,91c-2,4.36-3.53,8.9-5.14,13.43-.13.37.45.51.59.16,1.75-4.45,3.59-8.85,4.92-13.44.06-.21-.27-.36-.37-.15Z" transform="translate(0 22.91)"/><path class="cls-15" d="M185,10.86l-3,8c0,.1.12.14.15,0l3-8c0-.09-.12-.14-.16,0Z" transform="translate(0 22.91)"/><path class="cls-15" d="M179.74-12.21,173.17,5.5c-.06.15.17.21.23.07l6.53-17.73c0-.12-.15-.17-.19-.05Z" transform="translate(0 22.91)"/><path class="cls-15" d="M142.43,135.65,132.11,163c-.05.12.15.17.19.05q5.14-13.67,10.28-27.33c0-.09-.12-.14-.15,0Z" transform="translate(0 22.91)"/><path class="cls-15" d="M116.48,155q-2.79,7.07-5.57,14.12c-.06.15.17.21.23.06q2.76-7.05,5.53-14.12c0-.12-.14-.17-.19-.06Z" transform="translate(0 22.91)"/><path class="cls-15" d="M86.08,174.16q-3.89,10.16-7.65,20.36c-.05.13.15.18.19.06,2.59-6.78,5.11-13.57,7.61-20.38,0-.1-.11-.14-.15,0Z" transform="translate(0 22.91)"/><path class="cls-15" d="M56.44,178.64q-3.36,8.69-6.7,17.37c-.05.12.15.17.19.05l6.66-17.37c0-.1-.12-.14-.15-.05Z" transform="translate(0 22.91)"/><path class="cls-15" d="M165,157.84l-4.86,13.77c0,.1.13.14.16,0l4.85-13.77c0-.1-.12-.14-.15,0Z" transform="translate(0 22.91)"/><path class="cls-15" d="M187.85,170.09c-1.84,4.81-3.72,9.61-5.46,14.46-.06.17.2.24.27.08,1.87-4.8,3.61-9.66,5.38-14.49.05-.12-.15-.17-.19,0Z" transform="translate(0 22.91)"/><path class="cls-15" d="M215.83,172c-3.1,9.13-6.44,18.17-9.88,27.17,0,.15.18.21.23.07,3.57-9,6.84-18,9.93-27.16a.15.15,0,0,0-.28-.08Z" transform="translate(0 22.91)"/><path class="cls-15" d="M160.19,133.74c-.94,2.51-1.87,5-2.81,7.51,0,.12.15.17.19.05q1.41-3.75,2.81-7.5c.05-.12-.15-.18-.19-.06Z" transform="translate(0 22.91)"/><path class="cls-15" d="M119.36,131l-2.4,6.43c0,.1.11.14.15,0l2.41-6.43c0-.1-.12-.14-.16,0Z" transform="translate(0 22.91)"/><path class="cls-15" d="M142.16,170.4c-1.3,3.39-2.6,6.77-3.81,10.19-.06.15.17.2.23.06,1.33-3.37,2.57-6.78,3.81-10.18.06-.15-.17-.21-.23-.07Z" transform="translate(0 22.91)"/><path class="cls-15" d="M78.44,152.62c-1.75,3.94-3.27,8-4.8,12-.06.17.2.24.27.08,1.66-4,3.31-7.92,4.75-12a.12.12,0,0,0-.22-.09Z" transform="translate(0 22.91)"/><path class="cls-15" d="M100,164.7q-1.5,4-3,8c0,.1.12.14.16,0,1-2.68,2-5.37,3-8,0-.09-.12-.14-.16,0Z" transform="translate(0 22.91)"/><path class="cls-15" d="M94.72,141.63l-6.57,17.71c-.06.15.18.21.23.07q3.27-8.86,6.53-17.73c0-.12-.14-.17-.19-.05Z" transform="translate(0 22.91)"/><path class="cls-15" d="M322.18,159.13l-10.32,27.32c-.05.12.15.17.19.05l10.28-27.33c0-.09-.11-.14-.15,0Z" transform="translate(0 22.91)"/><path class="cls-15" d="M296.23,178.46q-2.79,7-5.57,14.11c-.06.15.18.21.23.07l5.54-14.13c0-.12-.15-.17-.2,0Z" transform="translate(0 22.91)"/><path class="cls-15" d="M265.83,197.64q-3.88,10.16-7.65,20.37c0,.12.15.17.19.05,2.59-6.78,5.11-13.57,7.62-20.38,0-.1-.12-.14-.16,0Z" transform="translate(0 22.91)"/><path class="cls-15" d="M236.19,202.12l-6.7,17.37c-.05.12.15.17.19,0l6.66-17.37c0-.1-.11-.14-.15,0Z" transform="translate(0 22.91)"/><path class="cls-15" d="M344.7,181.32l-4.85,13.77c0,.1.12.14.15,0q2.43-6.9,4.85-13.78c0-.1-.12-.14-.15,0Z" transform="translate(0 22.91)"/><path class="cls-15" d="M367.6,193.57c-1.84,4.81-3.72,9.61-5.46,14.46-.06.17.21.24.27.08,1.87-4.8,3.61-9.65,5.38-14.49,0-.12-.15-.17-.19-.05Z" transform="translate(0 22.91)"/><path class="cls-15" d="M395.59,195.49c-3.11,9.13-6.45,18.17-9.89,27.17-.05.15.18.21.24.07,3.56-9,6.83-18,9.92-27.16.06-.18-.22-.25-.27-.08Z" transform="translate(0 22.91)"/><path class="cls-15" d="M339.94,157.23l-2.81,7.5c-.05.12.15.18.19.05q1.41-3.75,2.81-7.5c.05-.12-.14-.18-.19-.05Z" transform="translate(0 22.91)"/><path class="cls-15" d="M299.12,154.47c-.81,2.14-1.61,4.29-2.41,6.43,0,.1.12.14.15,0,.81-2.14,1.61-4.29,2.41-6.43,0-.1-.12-.14-.15,0Z" transform="translate(0 22.91)"/><path class="cls-15" d="M321.91,193.88c-1.3,3.39-2.6,6.77-3.81,10.19-.06.15.17.21.23.06,1.33-3.37,2.57-6.78,3.81-10.18.06-.15-.17-.21-.23-.07Z" transform="translate(0 22.91)"/><path class="cls-15" d="M258.19,176.1c-1.74,4-3.27,8-4.8,12-.06.17.2.24.27.08,1.66-4,3.31-7.92,4.75-12a.12.12,0,0,0-.22-.09Z" transform="translate(0 22.91)"/><path class="cls-15" d="M279.76,188.18q-1.5,4-3,8c0,.1.12.14.16.05,1-2.68,2-5.36,3-8.05,0-.09-.12-.13-.16,0Z" transform="translate(0 22.91)"/><path class="cls-15" d="M274.47,165.11l-6.57,17.72c0,.14.18.2.23.06l6.54-17.73c0-.12-.15-.17-.2,0Z" transform="translate(0 22.91)"/><path class="cls-15" d="M264.69,32.82,254.37,60.14c0,.12.15.17.2,0q5.13-13.66,10.28-27.33c0-.1-.12-.14-.16,0Z" transform="translate(0 22.91)"/><path class="cls-15" d="M238.74,52.14q-2.78,7.06-5.57,14.12c-.06.14.18.21.23.06q2.78-7,5.54-14.12c0-.12-.15-.18-.2-.06Z" transform="translate(0 22.91)"/><path class="cls-15" d="M208.34,71.32c-2.58,6.78-5.15,13.56-7.65,20.37,0,.13.15.18.2.06C203.48,85,206,78.18,208.5,71.37c0-.1-.12-.14-.16-.05Z" transform="translate(0 22.91)"/><path class="cls-15" d="M178.7,75.81q-3.34,8.68-6.7,17.37c0,.12.15.17.2,0l6.66-17.38c0-.09-.12-.13-.16,0Z" transform="translate(0 22.91)"/><path class="cls-15" d="M287.21,55l-4.85,13.77c0,.1.12.14.15,0l4.86-13.77c0-.1-.12-.14-.16,0Z" transform="translate(0 22.91)"/><path class="cls-15" d="M310.11,67.25c-1.84,4.82-3.72,9.62-5.46,14.47-.06.17.21.24.27.08,1.87-4.8,3.61-9.66,5.38-14.49.05-.12-.14-.17-.19-.06Z" transform="translate(0 22.91)"/><path class="cls-15" d="M338.1,69.18c-3.11,9.13-6.44,18.17-9.88,27.17-.06.15.17.21.23.07,3.56-9,6.83-18,9.92-27.17.06-.17-.21-.24-.27-.07Z" transform="translate(0 22.91)"/><path class="cls-15" d="M282.45,30.91l-2.81,7.51c0,.12.15.17.2,0q1.4-3.75,2.81-7.5c0-.12-.15-.18-.2-.06Z" transform="translate(0 22.91)"/><path class="cls-15" d="M241.63,28.16c-.8,2.14-1.61,4.28-2.41,6.43,0,.1.12.14.15,0,.81-2.14,1.61-4.29,2.41-6.43,0-.1-.12-.14-.15,0Z" transform="translate(0 22.91)"/><path class="cls-15" d="M264.42,67.57c-1.3,3.39-2.6,6.77-3.81,10.19-.05.15.18.2.23.06,1.33-3.37,2.57-6.78,3.82-10.19,0-.14-.18-.2-.24-.06Z" transform="translate(0 22.91)"/><path class="cls-15" d="M200.71,49.79c-1.75,3.94-3.27,8-4.81,12-.06.17.21.24.27.07,1.66-4,3.31-7.91,4.76-12,0-.13-.17-.22-.22-.09Z" transform="translate(0 22.91)"/><path class="cls-15" d="M222.28,61.87l-3,8c0,.1.12.14.16,0,1-2.69,2-5.37,3-8,0-.09-.12-.14-.15,0Z" transform="translate(0 22.91)"/><path class="cls-15" d="M217,38.8l-6.57,17.71c0,.15.18.21.23.07l6.54-17.73c0-.12-.15-.17-.2-.05Z" transform="translate(0 22.91)"/><path class="cls-15" d="M131.9-15.76,121.58,11.55c0,.13.15.18.2.06q5.13-13.66,10.28-27.33c0-.1-.12-.14-.16,0Z" transform="translate(0 22.91)"/><path class="cls-15" d="M106,3.56q-2.78,7.06-5.57,14.12c-.06.14.18.21.23.06q2.77-7.06,5.54-14.12c0-.13-.15-.18-.2-.06Z" transform="translate(0 22.91)"/><path class="cls-15" d="M75.55,22.74C73,29.52,70.4,36.3,67.9,43.11c0,.12.15.18.2.06,2.59-6.78,5.11-13.58,7.61-20.38,0-.1-.12-.14-.16-.05Z" transform="translate(0 22.91)"/><path class="cls-15" d="M45.91,27.23q-3.34,8.69-6.7,17.36c0,.13.15.18.2.06l6.66-17.38c0-.09-.12-.13-.16,0Z" transform="translate(0 22.91)"/><path class="cls-15" d="M154.42,6.43,149.57,20.2c0,.1.12.14.15,0l4.86-13.77c0-.1-.12-.14-.16,0Z" transform="translate(0 22.91)"/><path class="cls-15" d="M177.32,18.67c-1.84,4.82-3.72,9.62-5.46,14.47-.06.17.21.24.27.07,1.87-4.8,3.61-9.65,5.39-14.48,0-.13-.15-.18-.2-.06Z" transform="translate(0 22.91)"/><path class="cls-15" d="M205.31,20.6c-3.11,9.12-6.44,18.17-9.88,27.17-.06.15.17.21.23.06,3.56-8.95,6.83-18,9.92-27.16.06-.17-.21-.24-.27-.07Z" transform="translate(0 22.91)"/><path class="cls-15" d="M149.66-17.67c-.93,2.5-1.87,5-2.81,7.51,0,.12.15.17.2.05q1.39-3.75,2.81-7.5c0-.13-.15-.18-.2-.06Z" transform="translate(0 22.91)"/><path class="cls-15" d="M108.84-20.43c-.8,2.15-1.61,4.29-2.41,6.44,0,.09.12.14.15,0,.81-2.14,1.61-4.29,2.41-6.43,0-.1-.12-.14-.15-.05Z" transform="translate(0 22.91)"/><path class="cls-15" d="M131.63,19c-1.29,3.39-2.6,6.77-3.81,10.19,0,.14.18.2.23.06,1.33-3.37,2.57-6.78,3.82-10.19,0-.14-.18-.2-.24-.06Z" transform="translate(0 22.91)"/><path class="cls-15" d="M67.92,1.2c-1.75,4-3.27,8-4.81,12-.06.17.21.24.28.07,1.65-4,3.3-7.92,4.75-12,0-.13-.17-.22-.22-.1Z" transform="translate(0 22.91)"/><path class="cls-15" d="M89.49,13.29q-1.51,4-3,8c0,.1.11.14.15,0l3-8c0-.1-.12-.14-.15,0Z" transform="translate(0 22.91)"/><path class="cls-15" d="M84.2-9.78Q80.9-.93,77.62,7.93c-.05.15.18.21.23.07L84.39-9.73c0-.12-.15-.17-.19,0Z" transform="translate(0 22.91)"/><path class="cls-15" d="M216.94,153.34q-1.73,4.54-3.46,9.1c-.06.17.21.25.28.08l3.37-9.13c.05-.12-.15-.17-.19,0Z" transform="translate(0 22.91)"/><path class="cls-15" d="M175.78,180.1q-1.62,4.29-3.22,8.58a.06.06,0,1,0,.12,0l3.21-8.57a.06.06,0,1,0-.11,0Z" transform="translate(0 22.91)"/><path class="cls-15" d="M164.92,218.84c-1.3,3.38-2.64,6.76-3.86,10.17-.05.15.18.21.24.07,1.32-3.38,2.52-6.8,3.77-10.2,0-.1-.12-.14-.15,0Z" transform="translate(0 22.91)"/><path class="cls-15" d="M116.77,185.52l-5,13.41c0,.12.15.17.2,0q2.49-6.71,5-13.41c.05-.12-.15-.17-.19,0Z" transform="translate(0 22.91)"/></g></g></g></svg>