<svg xmlns="http://www.w3.org/2000/svg" viewBox="0 0 378.25 235.27"><defs><style>.cls-1{fill:#0d2b69;}.cls-2{fill:#434242;}.cls-3{fill:#47a4ff;}.cls-4{fill:#f68f04;}.cls-5{fill:#73baff;}.cls-6{fill:#f1a30d;}.cls-7{fill:#fad000;}.cls-24,.cls-8{fill:none;}.cls-8{stroke:#edeef2;stroke-miterlimit:10;stroke-width:1.9px;}.cls-9{fill:#545351;}.cls-10{fill:#3b3a39;}.cls-11{fill:#ffeef1;}.cls-11,.cls-16,.cls-22{opacity:0.3;}.cls-12{fill:#ff001f;}.cls-13{fill:#1ccdf9;}.cls-14{fill:#fff;}.cls-15{fill:#fab802;}.cls-16{fill:#939389;}.cls-17{opacity:0.35;}.cls-18{fill:#162872;}.cls-19{fill:#f6a428;}.cls-20{opacity:0.5;}.cls-21{fill:#fafbfb;}.cls-23{fill:#151a33;}.cls-25{fill:#e94653;}.cls-26{fill:#ff6c6c;}</style></defs><g id="Layer_2" data-name="Layer 2"><g id="Layer_1-2" data-name="Layer 1"><path class="cls-1" d="M370,152.84a32.73,32.73,0,0,1-9.41,23l-.22.23a32.78,32.78,0,0,1-23.25,9.63H311.56A22.16,22.16,0,0,1,320.75,228a23.8,23.8,0,0,1-3.22,1.18,22.58,22.58,0,0,1-6,.81H139.86a22.12,22.12,0,0,1-22.08-20.27c0-.64-.08-1.27-.08-1.89a22.06,22.06,0,0,1,5.42-14.52l.42-.47c.21-.23.42-.46.65-.68a22.09,22.09,0,0,1,15.67-6.49H82.35a32.88,32.88,0,1,1,0-65.75H32.87a32.87,32.87,0,1,1,0-65.74h93.62a19.05,19.05,0,0,1,0-38.1H281a19.05,19.05,0,0,1,0,38.1h64.41a32.87,32.87,0,1,1,0,65.74h-8.31A32.88,32.88,0,0,1,370,152.84Z"/><rect class="cls-2" x="288.18" y="168.33" width="29.62" height="8.99" transform="translate(-45.62 184.82) rotate(-31.67)"/><circle class="cls-2" cx="335.99" cy="152.47" r="35" transform="translate(32.06 361.66) rotate(-58.95)"/><circle class="cls-3" cx="335.99" cy="152.47" r="30.46" transform="translate(158.88 476.15) rotate(-85.72)"/><path class="cls-4" d="M251.74,204.14a9.28,9.28,0,0,1,3.14-12.74l32.26-19.5A9.29,9.29,0,0,1,299.89,175h0a9.29,9.29,0,0,1-3.15,12.75l-32.26,19.5a9.28,9.28,0,0,1-12.74-3.15Z"/><path class="cls-5" d="M362,136.68l-.27-.42-46.3,28.56-5.52,3.41A30.45,30.45,0,0,0,362,136.68Z"/><path class="cls-6" d="M301.09,179.05a9.3,9.3,0,0,0-1.31-4.17c-.06-.1-.12-.18-.18-.27l-9.36,5.77-38.5,23.75a9.28,9.28,0,0,0,12.64,3l32.26-19.5A9.27,9.27,0,0,0,301.09,179.05Z"/><path class="cls-7" d="M339,50.46c8.41,4.41,13.57,15,8.78,24.16S334.69,81,331.8,86.49l-6.21,11.86-9.18-4.81-9.19-4.81,6.21-11.86c2.89-5.52-4.11-10.72.68-19.86S330.56,46.06,339,50.46Z"/><path class="cls-8" d="M322.78,60.17c1.06.55,1.16,1.82,2.17,2.34s4-3.93,8.53-1.56,2.41,7.29,3.57,7.9,2.32,0,3.16.45a1.82,1.82,0,0,1,.88,2.65c-.68,1.3-16.67,6.28-23,18.33,6.31-12,1.62-28.62,2-29.32A2.1,2.1,0,0,1,322.78,60.17Z"/><ellipse class="cls-9" cx="315.07" cy="96.1" rx="6.39" ry="7.12" transform="translate(83.76 330.61) rotate(-62.36)"/><rect class="cls-10" x="311.88" y="81.31" width="10.51" height="21.69" transform="translate(88.37 330.34) rotate(-62.36)"/><path class="cls-11" d="M347.73,74.66c-4.79,9.14-13.06,6.35-16,11.87l-3,5.81.42.22-4.88,9.32-3.35-1.76a6.88,6.88,0,0,1-8.74,1.73l26.86-51.29C347.4,55,352.49,65.56,347.73,74.66Z"/><path class="cls-12" d="M59.5,184.87s-6.29.83-7.32,1c-1.2.25-1.91.46-1.9,1.16,0,1,1.79,1.33,2,2.8a3.13,3.13,0,0,1-6.13,1.26c-.17-2.07,1.22-2.73,1.08-3.67-.06-.41-.92-.76-2-.59S37.78,188,37.78,188l-1-7s-.33-2.33-1.28-2.19-1.42,1.74-2.85,1.95A2.85,2.85,0,0,1,29.14,178a2.8,2.8,0,0,1,2.5-3.42c1.57-.23,2.57,1.08,3.42,1,0,0,.87-.32.63-2.3s-1-7-1-7L42,165.22s1.84-.33,2.06.47-1.5,2-1.06,3.65a3,3,0,0,0,3.45,2.34,3.07,3.07,0,0,0,2.79-3.38c-.16-1.79-2-2.11-2-3,0,0-.24-.86,2.6-1.27s6.57-1,6.57-1,.76,5.11.84,5.87.56,3.45-.41,3.59-1.67-1.33-3.61-1-2.45,2.3-2.23,3.82a3.08,3.08,0,0,0,3.36,2.42c1.44-.2,1.92-1.95,2.89-2.08s1.27,2.11,1.51,3.78S59.5,184.87,59.5,184.87Z"/><path class="cls-13" d="M66.61,47.06a4.64,4.64,0,0,0-4.85-4.37,4.86,4.86,0,0,1-4.85-4.85A4.64,4.64,0,0,0,52.54,33a4.64,4.64,0,0,0-4.36,4.85,4.87,4.87,0,0,1-4.85,4.85,4.64,4.64,0,0,0-4.85,4.37,4.64,4.64,0,0,0,4.85,4.36,4.87,4.87,0,0,1,4.85,4.85,4.64,4.64,0,0,0,4.36,4.85,4.64,4.64,0,0,0,4.37-4.85,4.87,4.87,0,0,1,4.85-4.85A4.64,4.64,0,0,0,66.61,47.06Z"/><path class="cls-14" d="M357.85,39a1.55,1.55,0,0,0-1.62-1.46,1.64,1.64,0,0,1-1.63-1.63,1.47,1.47,0,1,0-2.92,0,1.64,1.64,0,0,1-1.63,1.63,1.47,1.47,0,1,0,0,2.92,1.63,1.63,0,0,1,1.63,1.63,1.47,1.47,0,1,0,2.92,0,1.63,1.63,0,0,1,1.63-1.63A1.55,1.55,0,0,0,357.85,39Z"/><path class="cls-14" d="M23.38,140.73a2.47,2.47,0,0,0-1-3.33,2.59,2.59,0,0,1-.86-3.56,2.47,2.47,0,0,0-.65-3.42,2.47,2.47,0,0,0-3.33,1,2.59,2.59,0,0,1-3.55.86,2.48,2.48,0,0,0-3.42.64,2.47,2.47,0,0,0,1,3.33,2.59,2.59,0,0,1,.86,3.56,2.48,2.48,0,0,0,.64,3.42,2.47,2.47,0,0,0,3.34-1,2.59,2.59,0,0,1,3.55-.86A2.48,2.48,0,0,0,23.38,140.73Z"/><path class="cls-13" d="M319.69,39a2.47,2.47,0,0,0-2.58-2.33,2.59,2.59,0,0,1-2.59-2.59,2.34,2.34,0,1,0-4.65,0,2.6,2.6,0,0,1-2.59,2.59,2.34,2.34,0,1,0,0,4.66,2.59,2.59,0,0,1,2.59,2.58,2.34,2.34,0,1,0,4.65,0,2.59,2.59,0,0,1,2.59-2.58A2.47,2.47,0,0,0,319.69,39Z"/><path class="cls-13" d="M353.14,200.47a2.48,2.48,0,0,0-2.59-2.33,2.59,2.59,0,0,1-2.58-2.58,2.34,2.34,0,1,0-4.66,0,2.59,2.59,0,0,1-2.58,2.58,2.34,2.34,0,1,0,0,4.66,2.59,2.59,0,0,1,2.58,2.58,2.34,2.34,0,1,0,4.66,0,2.59,2.59,0,0,1,2.58-2.58A2.48,2.48,0,0,0,353.14,200.47Z"/><circle class="cls-14" cx="80.56" cy="69.91" r="3.05"/><circle class="cls-13" cx="38.54" cy="81.54" r="3.49"/><circle class="cls-13" cx="359.08" cy="95.17" r="5.94" transform="translate(183.65 422.61) rotate(-76.66)"/><path d="M141.66,216.88c-15.53-.11-25.45-.19-34.25-.27l-35.49-.31-4.8,0,0-4.8A21.4,21.4,0,0,1,88.5,190.3l5.46,0,.1-12.63A45.57,45.57,0,0,1,84.44,174l-.23-.1-.13-.09L83,173.22l-.29-.11-.39-.28a51.75,51.75,0,0,1-17.42-16.68l-1.71-.53-.47-.16-1.66-.57-.72-.27c-.51-.18-1-.38-1.54-.58l-.69-.28c-.73-.29-1.45-.59-2.19-.92s-1.55-.7-2.29-1.06l-.68-.34-1.65-.84-.73-.39q-.94-.53-1.89-1.08l-.38-.21c-.79-.47-1.55-.95-2.31-1.44l-.56-.38c-.58-.39-1.16-.78-1.73-1.19l-.7-.51c-.58-.43-1.15-.86-1.71-1.31l-.55-.43q-1.11-.9-2.19-1.86l-.25-.23c-.69-.63-1.29-1.2-1.87-1.78l-.58-.58c-.56-.57-1.07-1.11-1.56-1.66l-.57-.62a56.82,56.82,0,0,1-3.79-4.84l-.48-.72c-.45-.66-.87-1.32-1.27-2-.17-.27-.34-.55-.5-.83-.45-.77-.89-1.57-1.31-2.37l-.27-.51c-.48-1-.95-2-1.39-3l-.32-.77q-.48-1.2-.93-2.43l-.36-1c-.28-.84-.54-1.69-.78-2.56,0,0-.19-.64-.25-.87-.32-1.19-.6-2.38-.84-3.54l-.11-.66c-.2-1-.37-2-.51-3,0-.3-.15-1.2-.15-1.2-.12-.94-.21-1.88-.29-2.83,0,0-.07-.87-.09-1.19C20,101,20,99.73,19.94,98.47l0-4.87,31.56.26c0-.15,0-.68,0-.68,0-1.82,0-3.73,0-5.68l0-4.8,112.83.93,0,4.8c0,2.12-.06,4.25-.13,6.36h0l32.76.27-.11,4.86c-.92,41.16-34.41,53.94-47.45,57.34a58.07,58.07,0,0,1-4.88,6.09l-.31.34a44.83,44.83,0,0,1-24,14.33l-.1,12.53,5.28,0a21.36,21.36,0,0,1,21.16,21.52l0,4.79Zm21.92-104.53a122.41,122.41,0,0,1-3.43,20.6,46,46,0,0,0,15.58-20.52C172.16,112.42,167.91,112.39,163.58,112.35Zm-122.77-1c.12.35.24.7.37,1.06l.11.29a38.64,38.64,0,0,0,1.77,3.94l.11.21a45.56,45.56,0,0,0,2.66,4.43,46.93,46.93,0,0,0,8.69,9.61,124.78,124.78,0,0,1-2.79-19.42Z"/><rect class="cls-15" x="89.29" y="181.52" width="35.43" height="16.5" transform="translate(-83.64 295.2) rotate(-89.52)"/><path class="cls-7" d="M141.69,212.21a16.55,16.55,0,0,0-16.4-16.68l-36.65-.3A16.54,16.54,0,0,0,72,211.63C100.38,211.87,107.18,212,141.69,212.21Z"/><path class="cls-15" d="M24.74,98.57,77.85,99l-.06,7.87s-31.87-.06-42.73-.35c-.09,10.23,14.32,37.54,44.34,39,0,0,0,2.06-.07,8.51C69.56,154,25,144.45,24.74,98.57Z"/><path class="cls-15" d="M192,100l-53.11-.44-.07,7.87s31.86.47,42.73.35c-.08,10.23-14.94,37.31-45,38.28,0,0,0,2.07-.07,8.52C146.3,154.62,191,145.83,192,100Z"/><path class="cls-15" d="M107.86,88.09l-51.62-.43c-.47,56.54,17.46,86.8,50.89,87.08C142,175,159,145.06,159.47,88.52Z"/><path class="cls-7" d="M56.14,98.81c-.47,56.54,25.8,75.72,51,75.93s51.78-18.53,52.25-75.07Z"/><path class="cls-16" d="M107.86,88.09l-51.62-.43c0,3.85,0,7.56.16,11.16h-.26l-31.4-.26C25,133.86,51.36,147.65,68,152.17a47.48,47.48,0,0,0,17,16.76l.33.18c.41.23.83.47,1.25.68A41.22,41.22,0,0,0,98.89,174l-.17,21.32-10.08-.08A16.54,16.54,0,0,0,72,211.63l35.49.31,1-123.84Zm-72.8,18.44c4.62.12,13.06.21,21.22.26.55,14.1,2.89,25.63,6.51,34.9C44.06,133.51,35,114.64,35.06,106.53Z"/><g class="cls-17"><path class="cls-18" d="M205.23,213.29c-10.94,0-19.81,5-19.81,6.5v8.29h39.63v-8.29C225.05,218.26,216.18,213.29,205.23,213.29Z"/></g><path class="cls-19" d="M157.86,191.31c0,.14-.05.28-.08.43h0Z"/><polygon points="157.47 192.28 157.67 191.27 158.06 191.34 157.97 191.84 157.47 192.28"/><path class="cls-19" d="M271.85,195.14c-4.51-26.5-18.06-61.42-57.23-74.74v-.08l-.12,0-.11,0v.08c-37.31,12.68-51.37,45-56.53,70.91,0,0-.08.43-.19,1.18-.88,5.88-3.8,31.85,12.6,35.28a16.1,16.1,0,0,0,3.32.31h82a16,16,0,0,0,2.85-.23C273.51,225.14,272.81,204,271.85,195.14Z"/><path d="M255.63,228.28h-82a16,16,0,0,1-3.36-.32c-16.68-3.48-13.55-30.18-12.76-35.5.12-.78.2-1.19.2-1.19,5-25.31,18.92-58.16,56.52-71V120l.31.11.32-.11v.22c39,13.34,52.67,48.05,57.23,74.84v0c1,9,1.62,30.19-13.53,32.93A16,16,0,0,1,255.63,228.28ZM214.5,120.57l0,0c-37.53,12.76-51.39,45.52-56.4,70.76,0,0-.08.43-.19,1.17-.79,5.25-3.89,31.65,12.44,35a15.89,15.89,0,0,0,3.28.31h82a16.14,16.14,0,0,0,2.82-.22c14.82-2.68,14.17-23.61,13.21-32.49-4.56-26.72-18.16-61.34-57.11-74.58Z"/><path class="cls-19" d="M271.85,195.14c-4.51-26.5-18.06-61.42-57.23-74.74v-.08l-.12,0-.11,0v.08c-37.31,12.68-51.37,45-56.53,70.91,0,0-.08.43-.19,1.18-.88,5.88-3.8,31.85,12.6,35.28a16.1,16.1,0,0,0,3.32.31h82a16,16,0,0,0,2.85-.23C273.51,225.14,272.81,204,271.85,195.14Z"/><path d="M255.63,228.28h-82a16,16,0,0,1-3.36-.32c-16.68-3.48-13.55-30.18-12.76-35.5.12-.78.2-1.19.2-1.19,5-25.31,18.92-58.16,56.52-71V120l.31.11.32-.11v.22c39,13.34,52.67,48.05,57.23,74.84v0c1,9,1.62,30.19-13.53,32.93A16,16,0,0,1,255.63,228.28ZM214.5,120.57l0,0c-37.53,12.76-51.39,45.52-56.4,70.76,0,0-.08.43-.19,1.17-.79,5.25-3.89,31.65,12.44,35a15.89,15.89,0,0,0,3.28.31h82a16.14,16.14,0,0,0,2.82-.22c14.82-2.68,14.17-23.61,13.21-32.49-4.56-26.72-18.16-61.34-57.11-74.58Z"/><path d="M256.66,229.88H172.38a15.94,15.94,0,0,1-11.73-6c-7.41-9.3-5.51-26.56-4.75-31.63.11-.76.2-1.23.21-1.29,5.09-25.62,19.16-58.9,57.24-72.07a2.19,2.19,0,0,1,2.31,0c39.52,13.67,53.34,48.83,58,76,0,0,0,.07,0,.1.82,7.52,1.21,21.3-5.33,29.18a15.94,15.94,0,0,1-11.51,5.75Zm-84.07-3.59h84a12.3,12.3,0,0,0,9-4.47c5.89-7.09,5.13-20.8,4.52-26.43-4.46-26.18-17.74-60-55.57-73.13-36.45,12.62-50,44.68-54.88,69.4,0,0-.07.42-.18,1.1-.5,3.34-2.66,20.48,4,28.85A12.29,12.29,0,0,0,172.59,226.29Z"/><polygon class="cls-19" points="157.86 191.31 157.86 191.31 157.86 191.31 157.86 191.31"/><polygon points="157.86 191.51 157.62 191.51 157.67 191.27 158.06 191.31 158.06 191.51 157.86 191.51"/><path class="cls-19" d="M172.86,182.83s-23.39-3.74-26.57,14.42,9,30.83,22.07,30.83"/><g class="cls-20"><path class="cls-14" d="M150.57,196.48a17.38,17.38,0,0,1,9.31-13c-6,1.49-12.08,5.17-13.59,13.82-2.84,16.21,6.59,28,17.92,30.39C154.72,222.73,148,211.27,150.57,196.48Z"/></g><path d="M168.36,229.88a23.61,23.61,0,0,1-18-8.67c-5.38-6.4-7.45-15-5.83-24.27,1.78-10.17,11.89-14.35,14.94-15.39a1.79,1.79,0,1,1,1.16,3.39c-5.32,1.82-11.42,6.08-12.56,12.62-1.44,8.19.35,15.77,5,21.34a20,20,0,0,0,15.27,7.39,1.8,1.8,0,1,1,0,3.59Z"/><ellipse class="cls-21" cx="168.36" cy="221.06" rx="17.06" ry="11.5"/><g class="cls-22"><path d="M179,212.06a8.06,8.06,0,0,1,.69,3.24c0,6.35-7.63,11.5-17,11.5A22.53,22.53,0,0,1,152,224.3c2.08,4.77,8.62,8.26,16.36,8.26,9.42,0,17.06-5.15,17.06-11.5C185.42,217.41,182.9,214.16,179,212.06Z"/></g><path d="M174.94,210.45c.38,0,.76.05,1.14.08s.75.12,1.13.18a14.74,14.74,0,0,1,2.23.61,13.55,13.55,0,0,1,4.18,2.34,11,11,0,0,1,3.11,4.07c.16.42.32.85.44,1.29a7.76,7.76,0,0,1,.25,1.36,8.66,8.66,0,0,1-.08,2.78,11.17,11.17,0,0,1-2.28,4.91,15.53,15.53,0,0,1-3.83,3.43,22.18,22.18,0,0,1-9.22,3.27,26.81,26.81,0,0,1-4.82.17,25.8,25.8,0,0,1-4.78-.72,23.11,23.11,0,0,1-4.58-1.68,18.7,18.7,0,0,1-4.11-2.78,13.06,13.06,0,0,1-3.11-4.09,9.14,9.14,0,0,1-.89-5.2,8.62,8.62,0,0,1,2.11-4.61,9.57,9.57,0,0,1,3.9-2.64.09.09,0,0,1,.12.06.11.11,0,0,1,0,.08,18.07,18.07,0,0,0-2.2,3.68,8.42,8.42,0,0,0-.71,3.63,7.21,7.21,0,0,0,1,3.32,9.26,9.26,0,0,0,2.44,2.69,14.36,14.36,0,0,0,3.34,1.89,18.62,18.62,0,0,0,3.77,1.12,22.63,22.63,0,0,0,3.95.43,24,24,0,0,0,4-.22,19.67,19.67,0,0,0,7.33-2.44,12.09,12.09,0,0,0,2.83-2.29,7.5,7.5,0,0,0,1.61-2.91,5.77,5.77,0,0,0,.22-1.6,7.69,7.69,0,0,0,0-.83c0-.27-.1-.55-.16-.83a9.44,9.44,0,0,0-1.65-3.27,16.1,16.1,0,0,0-2.9-2.87c-.29-.21-.56-.44-.86-.64s-.59-.42-.9-.62l-.94-.58Z"/><path class="cls-19" d="M181.86,228.08c-14.49-21.22-9-41-9-41s8.75,34,34.27,40.55Z"/><path d="M214.39,229.88H181.86a1.8,1.8,0,0,1,0-3.59h32.53a1.8,1.8,0,1,1,0,3.59Z"/><ellipse class="cls-21" cx="214.68" cy="158.96" rx="38.18" ry="56.11"/><g class="cls-22"><ellipse cx="223.55" cy="139.62" rx="42.54" ry="34.58"/></g><path class="cls-19" d="M256.67,182.83s22.9-3.74,26,14.42-8.85,30.83-21.6,30.83"/><g class="cls-20"><path class="cls-14" d="M278.37,197.4a17.4,17.4,0,0,0-9.3-13.05c6,1.49,12.07,5.17,13.59,13.82,2.84,16.21-6.6,28-17.92,30.39C274.23,223.65,281,212.19,278.37,197.4Z"/></g><path d="M261.08,229.88a1.8,1.8,0,1,1,0-3.59,19.4,19.4,0,0,0,14.73-7.17c4.72-5.59,6.53-13.25,5.11-21.57-1.57-9.12-9.05-12.09-12.2-13a1.79,1.79,0,1,1,.94-3.46c7.94,2.16,13.47,8.07,14.79,15.81,1.61,9.37-.49,18.07-5.9,24.49A23,23,0,0,1,261.08,229.88Z"/><ellipse class="cls-21" cx="261.08" cy="221.06" rx="16.69" ry="11.5"/><path d="M255,212.17a19.37,19.37,0,0,0-3.65,1.62,12.57,12.57,0,0,0-3,2.34,8.22,8.22,0,0,0-1.85,2.94c-.08.27-.15.53-.2.79a7.28,7.28,0,0,0-.1.8,5.36,5.36,0,0,0,.12,1.6,7.28,7.28,0,0,0,1.53,3,12.17,12.17,0,0,0,2.81,2.4,19,19,0,0,0,7.4,2.57,23,23,0,0,0,8-.25,17.06,17.06,0,0,0,7.13-3.18,9.48,9.48,0,0,0,2.39-2.77,7.36,7.36,0,0,0,.89-3.33,8.61,8.61,0,0,0-.72-3.6,19.34,19.34,0,0,0-2.15-3.71.09.09,0,0,1,0-.13.14.14,0,0,1,.09,0,9.13,9.13,0,0,1,3.94,2.61,8.47,8.47,0,0,1,2.11,4.64,9.13,9.13,0,0,1-1,5.19,12.9,12.9,0,0,1-3.16,4,18,18,0,0,1-4.12,2.69A22,22,0,0,1,267,234a27.36,27.36,0,0,1-9.5.5,23.4,23.4,0,0,1-4.71-1.06,21.1,21.1,0,0,1-4.45-2.07,15.59,15.59,0,0,1-3.85-3.34,11.5,11.5,0,0,1-2.37-4.84,9.67,9.67,0,0,1-.17-2.79,9.18,9.18,0,0,1,.2-1.38,12,12,0,0,1,.39-1.33,12.33,12.33,0,0,1,2.92-4.4,18.75,18.75,0,0,1,8.58-4.54,1.79,1.79,0,0,1,1,3.44Z"/><g class="cls-22"><path d="M250.19,212.06a8.06,8.06,0,0,0-.69,3.24c0,6.35,7.63,11.5,17.05,11.5a22.53,22.53,0,0,0,10.61-2.5c-2.08,4.77-8.61,8.26-16.36,8.26-9.42,0-17.06-5.15-17.06-11.5C243.74,217.41,246.26,214.16,250.19,212.06Z"/></g><path class="cls-19" d="M285.17,103.76s20.15-33,12.15-43.49S262.75,64,262.75,64c-12.07-10.66-23.94-13.1-23.94-13.1s-11.42-4.07-27.26-1.2c0,0-15.4-25.85-27.66-21.06s-12.14,43.48-12.14,43.48h0A119.8,119.8,0,0,0,155,94.52a32.18,32.18,0,0,0-3.27,25c4.12,14.55,17.64,33.5,55.63,44,37.9,10.74,59.28,1.54,70.34-8.77a32.17,32.17,0,0,0,10.17-23.1,119.43,119.43,0,0,0-2.69-27.87"/><g class="cls-20"><path class="cls-14" d="M297.07,61.27C289.06,50.82,262.5,65,262.5,65c-12.07-10.67-23.94-13.1-23.94-13.1s-11.42-4.07-27.26-1.2c0,0-15.4-25.85-27.66-21.06-4.48,1.75-7.31,8-9.09,15.29,1.79-5.65,4.36-10.2,8.07-11.65,12.26-4.79,27.66,21.07,27.66,21.07a62.53,62.53,0,0,1,21.36-.21,2.3,2.3,0,0,0-.91,1.23c-.66,2.36,3.27,5.52,8.78,7.06s10.51.87,11.17-1.49h0a64.21,64.21,0,0,1,10.8,7.71S288,54.47,296.05,64.92c2.42,3.16,2.26,8.38.87,14.14C299.16,71.92,300,65.09,297.07,61.27Z"/></g><path class="cls-23" d="M202.19,52.09s-8.41-13.74-14.6-11.32-6.18,22.62-6.18,22.62A72,72,0,0,1,202.19,52.09Z"/><path class="cls-23" d="M269.5,70.89s14.31-7.4,18.35-2.13-6.44,22.55-6.44,22.55A71.77,71.77,0,0,0,269.5,70.89Z"/><path class="cls-24" d="M153.55,97.35h.21c.31-.61.64-1.22,1-1.82a134,134,0,0,1,7.51-11.43,108.93,108.93,0,0,1,9.24-11h0v-.74A119.59,119.59,0,0,0,155,94.52a32.09,32.09,0,0,0-3.28,7.77C152.26,100.67,152.87,99,153.55,97.35Z"/><path class="cls-24" d="M183.64,29.6c12.26-4.79,27.66,21.06,27.66,21.06,15.84-2.87,27.26,1.2,27.26,1.2S250.43,54.29,262.5,65c0,0,26.56-14.14,34.57-3.69,2.41,3.15,2.26,8.36.88,14.1,1.61-6.13,1.92-11.76-.63-15.1-8-10.44-34.57,3.69-34.57,3.69-12.07-10.66-23.94-13.1-23.94-13.1s-11.42-4.07-27.26-1.2c0,0-15.4-25.85-27.66-21.06-4.5,1.76-7.33,8.09-9.12,15.4C176.57,37.12,179.34,31.27,183.64,29.6Z"/><path class="cls-21" d="M153.76,97.34h-.21c-.68,1.68-1.29,3.32-1.83,4.94-.14.47-.26.94-.37,1.42.21-.8.45-1.6.72-2.38A33.12,33.12,0,0,1,153.76,97.34Z"/><path class="cls-21" d="M151.35,103.71a32.22,32.22,0,0,0-.8,6.92,88.87,88.87,0,0,1,1.52-9.3C151.8,102.11,151.56,102.91,151.35,103.71Z"/><path class="cls-21" d="M285.27,104.18l-.35.58h0A107.86,107.86,0,0,1,287.13,119c-10-4.65-20.13.91-27,3.32-7.77,2.73-8.8-8.85-16.23-17.72a34.54,34.54,0,0,0-37.64-10.51c-10.95,3.74-17.83,13.1-23.06,6.75-4.57-5.55-10.28-15.38-20.94-16.78a134,134,0,0,0-7.51,11.43c-.35.6-.68,1.21-1,1.82a33.12,33.12,0,0,0-1.69,4,88.87,88.87,0,0,0-1.52,9.3,31.89,31.89,0,0,0,1.18,8.92c4.12,14.55,17.64,33.5,55.63,44,37.9,10.74,59.28,1.54,70.34-8.77a32,32,0,0,0,8.83-14.31v0l.18-.58a32.13,32.13,0,0,0,1.16-8.19A119.79,119.79,0,0,0,285.27,104.18Z"/><path d="M238.6,170.09a116.92,116.92,0,0,1-31.73-4.87c-17.43-4.79-31.31-11.8-41.23-20.83-7.81-7.11-13.07-15.3-15.63-24.35a34.06,34.06,0,0,1,3.45-26.43A122.44,122.44,0,0,1,170,71.36a152.72,152.72,0,0,1,1.49-19.48c2.09-14.32,6.06-22.71,11.79-25,12.14-4.75,26,15.73,29.2,20.76,14.83-2.41,25.55,1,26.85,1.44,1.35.3,12.28,2.94,23.72,12.68,5.33-2.65,27.8-13,35.73-2.63,3.74,4.89,2.79,14.12-2.84,27.45a153.44,153.44,0,0,1-8.82,17.44,122.76,122.76,0,0,1,2.59,27.58A34.1,34.1,0,0,1,278.92,156c-6.88,6.41-15.62,10.7-26,12.73A74.87,74.87,0,0,1,238.6,170.09ZM173,73.37a118.4,118.4,0,0,0-16.45,22.06,30.45,30.45,0,0,0-3.09,23.63c3.89,13.73,16.47,32.28,54.37,42.71,37.83,10.72,58.21,1.37,68.65-8.36a30.51,30.51,0,0,0,9.6-21.81,118.38,118.38,0,0,0-2.64-27.39,1.78,1.78,0,0,1,.2-1.38c5.43-8.9,18.2-33.7,12.25-41.46-5.8-7.58-25.28.45-32.3,4.18a1.81,1.81,0,0,1-2-.24c-11.57-10.23-23-12.67-23.11-12.69l-.24-.07c-.11,0-11.2-3.86-26.34-1.12a1.77,1.77,0,0,1-1.86-.85c-4.07-6.82-16.58-23.78-25.47-20.31-9.11,3.56-11,31.39-11,41.81A1.79,1.79,0,0,1,173,73.37Z"/><ellipse class="cls-21" cx="212.26" cy="64.71" rx="5.18" ry="9.04" transform="translate(92.85 251.74) rotate(-74.4)"/><ellipse class="cls-21" cx="256.83" cy="77.15" rx="5.18" ry="9.04" transform="translate(113.44 303.77) rotate(-74.4)"/><polygon class="cls-25" points="225.19 103.68 225.2 103.69 225.22 103.61 225.21 103.61 225.19 103.68"/><polygon class="cls-25" points="224.99 103.62 225.01 103.56 225 103.55 224.98 103.62 224.99 103.62"/><path class="cls-26" d="M231.54,115.94c-3.25,8.78-9.59,14.54-14.16,12.85s-5.65-10.19-2.4-19"/><path d="M219,129.29a5.12,5.12,0,0,1-1.73-.3c-2.29-.85-3.81-3.33-4.27-7a26.76,26.76,0,0,1,1.74-12.25.23.23,0,0,1,.28-.13.22.22,0,0,1,.13.28,26.33,26.33,0,0,0-1.72,12c.44,3.49,1.86,5.86,4,6.64,4.46,1.65,10.68-4.06,13.88-12.72a.23.23,0,0,1,.28-.13.22.22,0,0,1,.13.28C228.85,123.84,223.47,129.29,219,129.29Z"/><path class="cls-12" d="M230.74,117.9a26.87,26.87,0,0,1-4.51,7.1c-2.91,3.22-6.18,4.78-8.85,3.79s-4.16-4.31-4.27-8.65a26.84,26.84,0,0,1,1.2-8.31Z"/><path d="M219.07,129.33a5.09,5.09,0,0,1-1.78-.31c-2.69-1-4.3-4.23-4.42-8.88a26.76,26.76,0,0,1,1.21-8.38l.07-.25,16.92,6.25L231,118a27.38,27.38,0,0,1-4.54,7.17C224,127.88,221.37,129.33,219.07,129.33Zm-4.6-17.18a26.49,26.49,0,0,0-1.11,8c.11,4.43,1.61,7.51,4.1,8.43s5.62-.44,8.59-3.72a26.65,26.65,0,0,0,4.36-6.8Z"/><path d="M218.86,122.65l2.69-9.37a1.47,1.47,0,0,1,2.82.81,1.19,1.19,0,0,1-.08.2l-4,8.87a.73.73,0,0,1-1,.37A.75.75,0,0,1,218.86,122.65Z"/><path d="M219.57,130.63a7.83,7.83,0,0,1-2.7-.47,9.15,9.15,0,0,1-5.49-6.61,16.94,16.94,0,0,1,.69-10.08,1.46,1.46,0,1,1,2.74,1,13.94,13.94,0,0,0-.6,8.32,6.32,6.32,0,0,0,3.67,4.62c3.81,1.4,8.63-2.11,10.75-7.84a1.46,1.46,0,0,1,2.74,1C229.14,126.65,224.23,130.63,219.57,130.63Z"/><g class="cls-22"><path d="M239.24,117.72c-2.2,4.52-7.43,9-12.83,6.42a8.27,8.27,0,0,1-4.93-6.48l-.09,0a8.46,8.46,0,0,1-8,1.71c-5.37-1.3-6.87-8.21-5.6-13.08"/></g><path class="cls-14" d="M238,116.44c-2.21,4.52-6,5.74-10.14,3.66a7.61,7.61,0,0,1-4.28-8.23l-.09,0a7.61,7.61,0,0,1-8.61,3.48c-4.45-1.09-6.58-4.51-5.31-9.38"/><path d="M231.65,121.3a8.66,8.66,0,0,1-3.85-1,7.71,7.71,0,0,1-4.46-7.81,7.7,7.7,0,0,1-8.47,3,7.57,7.57,0,0,1-4.9-3.31,8.15,8.15,0,0,1-.57-6.33.22.22,0,0,1,.42.1,7.76,7.76,0,0,0,.52,6A7.18,7.18,0,0,0,215,115.1a7.36,7.36,0,0,0,8.36-3.38.23.23,0,0,1,.26-.09l.1,0a.22.22,0,0,1,.14.23,7.36,7.36,0,0,0,4.16,8,7.14,7.14,0,0,0,5.54.65,7.71,7.71,0,0,0,4.3-4.22.22.22,0,0,1,.29-.1.22.22,0,0,1,.1.29,8.15,8.15,0,0,1-4.55,4.44A6.3,6.3,0,0,1,231.65,121.3Z"/><g class="cls-22"><path d="M238,116.44c-2.21,4.52-6,5.74-10.14,3.66a7.63,7.63,0,0,1-4.28-8.23l-.09,0a7.61,7.61,0,0,1-8.61,3.48c-4.45-1.09-6.58-4.51-5.31-9.38l1.26.47c.59,2.53,2.52,4.3,5.49,5a7.5,7.5,0,0,0,5.94-.8l3,1.12a7.47,7.47,0,0,0,4,4.47c2.73,1.39,5.34,1.31,7.44-.24Z"/></g><path d="M231.65,122.54a9.83,9.83,0,0,1-4.41-1.13,8.84,8.84,0,0,1-4.93-6.13,9.64,9.64,0,0,1-13.41-2.43,9.43,9.43,0,0,1-.71-7.29,1.46,1.46,0,0,1,2.83.74,6.54,6.54,0,0,0,.39,5,6,6,0,0,0,3.86,2.54,6.1,6.1,0,0,0,7-2.83,1.45,1.45,0,0,1,1.74-.6l.1,0a1.46,1.46,0,0,1,.94,1.58,6.11,6.11,0,0,0,3.49,6.72,5.9,5.9,0,0,0,4.59.58,6.52,6.52,0,0,0,3.57-3.58,1.46,1.46,0,1,1,2.63,1.28,9.38,9.38,0,0,1-5.27,5.07A7.63,7.63,0,0,1,231.65,122.54Z"/><path d="M223.69,113a1.51,1.51,0,0,1-.5-.09,1.46,1.46,0,0,1-.87-1.88l2.52-6.8a1.46,1.46,0,1,1,2.74,1L225.06,112A1.44,1.44,0,0,1,223.69,113Z"/><path d="M235.41,106.65c-1,2.84-6.52,5.15-11.52,3.3s-7.65-7.15-6.6-10,5.19-1.58,10.19.27S236.45,103.82,235.41,106.65Z"/><path class="cls-14" d="M230.56,103.94c-.23.62-2.29.81-4.47,0s-3.62-2.28-3.39-2.91,2,0,4.18.78S230.79,103.32,230.56,103.94Z"/><path d="M228.89,104.67a8.54,8.54,0,0,1-2.86-.54c-2.12-.78-3.82-2.32-3.51-3.16s1.94-.26,4.43.66a25.68,25.68,0,0,1,2.76,1.14c.54.28,1.23.71,1,1.24h0c-.15.39-.76.64-1.69.66ZM223.24,101c-.19,0-.32,0-.36.14-.16.44,1.12,1.86,3.28,2.66a7.87,7.87,0,0,0,2.89.52c.82,0,1.26-.23,1.33-.41h0c0-.08,0-.31-.85-.75a24.21,24.21,0,0,0-2.72-1.12A15.76,15.76,0,0,0,223.24,101Z"/><path d="M243.24,95.15a7,7,0,0,1,.85-1.25,8.58,8.58,0,0,1,1-1.06,10.35,10.35,0,0,1,2.53-1.63,10.85,10.85,0,0,1,3-.82l.8,0a5.48,5.48,0,0,1,.81,0l.81.07.8.17.39.08.37.12.73.24a7.17,7.17,0,0,1,.71.3l.7.33a10.41,10.41,0,0,1,2.52,1.91A8.29,8.29,0,0,1,261,96.25l.14.37.1.38a5.45,5.45,0,0,1,.23,1.53v.39c0,.14,0,.25,0,.43a.72.72,0,0,1-.78.64.65.65,0,0,1-.49-.26l-.2-.24c-.1-.12-.19-.31-.31-.47s-.22-.32-.33-.47a8.84,8.84,0,0,0-.74-.85,9.31,9.31,0,0,0-1.67-1.32l-.45-.26-.48-.23a3.48,3.48,0,0,0-.48-.21l-.48-.2c-.35-.1-.68-.23-1-.32s-.73-.2-1-.24l-.49-.09-.5,0c-.33-.06-.67,0-1,0a17.77,17.77,0,0,0-2.1.21c-.72.14-1.47.31-2.24.53s-1.58.49-2.38.73l-.12,0a.77.77,0,0,1-1-.52A.8.8,0,0,1,243.24,95.15Z"/><path d="M214.6,87.19c-.46-.7-.9-1.44-1.35-2.09s-.91-1.28-1.38-1.85a15.08,15.08,0,0,0-1.47-1.51c-.28-.19-.5-.45-.79-.62l-.41-.29-.43-.24c-.27-.18-.64-.32-1-.49s-.66-.27-1-.42l-.5-.16a3.12,3.12,0,0,0-.5-.14l-.51-.14-.51-.08a8.87,8.87,0,0,0-2.13-.07,8.55,8.55,0,0,0-1.11.18c-.19,0-.38.09-.57.15s-.38.13-.53.16l-.31.06a.72.72,0,0,1-.84-.57.74.74,0,0,1,.11-.55c.1-.14.16-.24.25-.35l.25-.3a5.62,5.62,0,0,1,.54-.55,5.7,5.7,0,0,1,.62-.48l.32-.22.34-.19a8.32,8.32,0,0,1,3-.94,10.13,10.13,0,0,1,3.16.16l.75.2a4.54,4.54,0,0,1,.74.23l.71.28a2.67,2.67,0,0,1,.36.14l.35.19.72.39.67.46a6.11,6.11,0,0,1,.63.51c.2.18.4.36.59.55a10.47,10.47,0,0,1,1.79,2.58,10.27,10.27,0,0,1,.89,2.87,9.09,9.09,0,0,1,.11,1.47,7.16,7.16,0,0,1-.16,1.5.77.77,0,0,1-.9.61.8.8,0,0,1-.5-.33Z"/><g class="cls-22"><path d="M282.47,136.84c-11.06,10.31-32.44,19.51-70.34,8.77-38-10.45-51.51-29.4-55.63-44a31.62,31.62,0,0,1-1.14-10.26,32.13,32.13,0,0,0-2.68,24c4.12,14.55,17.64,33.5,55.62,44,37.91,10.74,59.29,1.54,70.35-8.77a32.14,32.14,0,0,0,10.12-21.88A31.9,31.9,0,0,1,282.47,136.84Z"/></g><path d="M222.91,117.23a10.32,10.32,0,0,1-.55,1.71c-.24.56-.49,1.11-.78,1.66s-.57,1.08-.89,1.62-.67,1.06-1.06,1.57a17.31,17.31,0,0,1-.09-1.89c0-.63,0-1.24.07-1.85s.11-1.22.2-1.82a11.7,11.7,0,0,1,.41-1.75,1.4,1.4,0,0,1,2.69.75Z"/><path class="cls-19" d="M260.72,179.52s-6,51.47-22.07,53.42c-16.42,2-15.72-1.91-14.39-31.29C224.26,201.65,240.69,169.48,260.72,179.52Z"/><path class="cls-21" d="M253.09,214.47c-3.43,9.65-8.13,17.72-14.32,18.47-14.86,1.8-15.69-1.23-14.74-23.62a22.7,22.7,0,0,1,29.06,5.15Z"/><g class="cls-22"><path d="M233.41,227.43c9.22-.35,16-7.49,20.3-14.14-3.47,10.17-8.29,18.87-14.74,19.65-10.09,1.22-13.71.21-14.69-7.57C226.33,226.74,229.25,227.58,233.41,227.43Z"/></g><path class="cls-21" d="M250.71,177.58s-6,25.47-26.43,22.68S221.52,164.68,250.71,177.58Z"/><path d="M261,179.55c.39,8.86-1.2,17.54-3.3,26.08a94.55,94.55,0,0,1-4.13,12.63,58.2,58.2,0,0,1-2.9,6.08,31.11,31.11,0,0,1-3.91,5.71,17.5,17.5,0,0,1-2.67,2.47,11.76,11.76,0,0,1-3.38,1.8q-.47.15-1,.27c-.32.06-.67.13-1,.17l-1.65.2c-1.1.12-2.23.22-3.37.28a21.63,21.63,0,0,1-3.58-.09,9.37,9.37,0,0,1-3.84-1.25,7.93,7.93,0,0,1-2.87-3.12,9.08,9.08,0,0,1-.42-.9c-.11-.3-.26-.6-.34-.9l-.27-.9-.19-.88a34.38,34.38,0,0,1-.55-6.85c0-2.23.12-4.43.34-6.62s.45-4.36.78-6.53.71-4.32,1.18-6.47a.31.31,0,0,1,.36-.23.32.32,0,0,1,.24.27c.34,4.39.39,8.74.49,13.06.07,2.16.1,4.31.22,6.43,0,.53.06,1.06.1,1.58s.09,1,.15,1.55.13,1,.19,1.53c0,.25.09.49.14.74s.08.49.14.72a10.48,10.48,0,0,0,.89,2.57,4.29,4.29,0,0,0,1.46,1.65,5.77,5.77,0,0,0,2.31.77,18.48,18.48,0,0,0,2.93.15c1,0,2.07-.11,3.13-.21l1.59-.17.64-.1.61-.16a8.16,8.16,0,0,0,2.36-1.25,13.34,13.34,0,0,0,2.08-2,27.41,27.41,0,0,0,3.39-5.08,53.13,53.13,0,0,0,2.59-5.74c1.52-4,2.77-8.06,3.9-12.2.57-2.07,1.1-4.15,1.62-6.24l1.51-6.29c1-4.2,2.07-8.41,3.36-12.62h0a.29.29,0,0,1,.37-.2A.3.3,0,0,1,261,179.55Z"/><path d="M172.06,201.46c.76,2.33,1.43,4.6,2.2,6.83.38,1.11.78,2.21,1.18,3.31l.63,1.63c.22.54.45,1.08.68,1.61q1.38,3.21,3.06,6.25c1.1,2,2.31,4,3.54,6v0a1.8,1.8,0,0,1-3,2,44.84,44.84,0,0,1-3.83-6.3,47.53,47.53,0,0,1-2.77-6.84c-.18-.59-.36-1.18-.53-1.77s-.32-1.19-.45-1.79a33.86,33.86,0,0,1-.65-3.62A30.31,30.31,0,0,1,172.06,201.46Z"/><path class="cls-19" d="M186.49,155.92c-7.76-3.77-13.73-7.58-12.81-17.65s5.79-24.75-10.86-22.3c-11.17,1.64-17.15,23.81-16.26,33.87,1.23,13.69,12.89,23.23,24.44,28.93"/><path class="cls-21" d="M173.92,136.83a25.68,25.68,0,0,1-25.61-2.58l5.73-9.66,5.26-6.88L170,117l2.87,1.76,1.82,3.59Z"/><g class="cls-20"><path class="cls-14" d="M150.55,149.36c-1.05-12.51,6.85-31.35,18-33l.51-.07a18.44,18.44,0,0,0-5.87.07C152.05,118,146.07,140.18,147,150.23c1.23,13.7,6.11,19.4,17.65,25.1h0C155.75,167.69,151.57,161.5,150.55,149.36Z"/></g><path class="cls-21" d="M177.19,169.64c3.69-4.82,5.9-8.93,9.39-13.76-4.13-1.67-7.34-3.62-9.55-6.28a84.26,84.26,0,0,0-.53,9.36A82.84,82.84,0,0,0,177.19,169.64Z"/><g class="cls-22"><path d="M165,142.76c-1.45,9.4,9.69,16.3,18.36,13.54h0c-7.88-3.91-13.76-7.3-12.85-17.66s5.8-24-10.85-22.58a9.13,9.13,0,0,0-3.54,1.25C171.28,118.08,166.88,130.43,165,142.76Z"/></g><path d="M162.7,175.72a1.83,1.83,0,0,1-1-.32c-7.12-5-15.83-13.41-16.9-25.41-.9-10,4.9-33.9,17.77-35.8,5.3-.78,9,0,11.44,2.38,3.93,3.9,2.93,11,2,17.29-.22,1.61-.44,3.14-.57,4.58-.83,9,4.37,12.26,11.81,15.87a1.8,1.8,0,1,1-1.57,3.23c-7.87-3.83-14.85-8.19-13.81-19.43.14-1.52.36-3.09.59-4.75.76-5.44,1.62-11.61-1-14.24-1.51-1.51-4.34-2-8.38-1.38-9.49,1.4-15.61,22-14.73,31.94,1,10.61,8.89,18.24,15.38,22.77a1.8,1.8,0,0,1-1,3.27Z"/><path d="M161.34,124.05a5,5,0,0,1-.22-2.29,10.92,10.92,0,0,1,.54-2.31c.12-.39.29-.74.43-1.12s.34-.72.52-1.08.38-.7.58-1l.63-1a1.89,1.89,0,0,1,3.21,2,1.78,1.78,0,0,1-.53.56l0,0-.85.58-.83.62-.79.68c-.24.23-.51.47-.73.72A9.14,9.14,0,0,0,162,122,4.57,4.57,0,0,0,161.34,124.05Z"/><path d="M168.69,127.06a10.56,10.56,0,0,1,0-2A13.63,13.63,0,0,1,169,123a13,13,0,0,1,.67-2.06,14.28,14.28,0,0,1,1.05-2l0,0a1.91,1.91,0,0,1,3.25,2,1.81,1.81,0,0,1-.63.63,9.53,9.53,0,0,0-1.41,1,10.41,10.41,0,0,0-1.28,1.29,11.56,11.56,0,0,0-1.1,1.54A10.59,10.59,0,0,0,168.69,127.06Z"/><path class="cls-12" d="M143.77,56.75a33.83,33.83,0,1,0-12.41,10.09l15.22,5.1Z"/><g class="cls-20"><path class="cls-14" d="M116.83,9.67a33.86,33.86,0,0,1,33.65,30.21,33.17,33.17,0,0,0,.2-3.61,33.85,33.85,0,0,0-67.7,0,33.35,33.35,0,0,0,.2,3.62A33.84,33.84,0,0,1,116.83,9.67Z"/></g><path d="M146.58,74.36a2.27,2.27,0,0,1-.77-.13L131.5,69.44a36.29,36.29,0,1,1,14.84-12.09L149,71.5a2.43,2.43,0,0,1-2.38,2.86Zm-15.22-9.93a2.51,2.51,0,0,1,.76.12l11.34,3.79-2.07-11.15a2.4,2.4,0,0,1,.46-1.9,31.41,31.41,0,1,0-11.53,9.37A2.47,2.47,0,0,1,131.36,64.43Z"/><g class="cls-22"><path d="M144,56.45A39.11,39.11,0,0,1,83.38,31a34.84,34.84,0,0,0-.4,5.24,33.85,33.85,0,0,0,48.38,30.57l15.22,5.1-2.81-15.19Z"/></g><path d="M137.23,142.51a52.19,52.19,0,0,0-.19,6.2,38.68,38.68,0,0,0,.6,5.91,40.9,40.9,0,0,0,1.5,5.75c.65,1.9,1.46,3.78,2.27,5.79a16.48,16.48,0,0,1-4.26-4.87,19.06,19.06,0,0,1-2.26-6.18,19.33,19.33,0,0,1,0-6.57,17.86,17.86,0,0,1,.85-3.15A11.54,11.54,0,0,1,137.23,142.51Z"/><path d="M129,152.09a17.83,17.83,0,0,1,1.1,3c.27,1,.5,1.9.69,2.85s.37,1.89.51,2.88a18.81,18.81,0,0,1,.19,3.19,7.33,7.33,0,0,1-2.26-2.45,9.94,9.94,0,0,1-1.17-3.05,10.25,10.25,0,0,1-.14-3.27A7.45,7.45,0,0,1,129,152.09Z"/><path d="M231.1,223.65a4.46,4.46,0,0,0-.42,2.08,8.37,8.37,0,0,0,.26,2.06c.06.33.18.67.27,1s.23.65.35,1,.26.64.41,1l.45.93v0a1.89,1.89,0,1,1-3.59.89l0-1.2c0-.4,0-.8,0-1.2s.05-.79.09-1.19.09-.79.18-1.18a10,10,0,0,1,.69-2.28A4.93,4.93,0,0,1,231.1,223.65Z"/><path d="M239,224.69a9.9,9.9,0,0,0-.14,1.95,11.75,11.75,0,0,0,.18,1.89,11,11,0,0,0,.47,1.75,9.81,9.81,0,0,0,.73,1.57,1.9,1.9,0,0,1-3.34,1.83,1.87,1.87,0,0,1-.23-.85v-.06a14.1,14.1,0,0,1,.09-2.26,13.29,13.29,0,0,1,.45-2.12,12.72,12.72,0,0,1,.76-1.95A10.91,10.91,0,0,1,239,224.69Z"/><path d="M161.52,221.63a4.4,4.4,0,0,0-.69,2,8.52,8.52,0,0,0,0,2.08c0,.34.09.69.14,1s.14.68.21,1,.18.67.28,1l.32,1v0a1.89,1.89,0,1,1-3.67.41l.12-1.19c.05-.4.11-.8.17-1.19s.16-.78.25-1.17.2-.77.34-1.15a10,10,0,0,1,1-2.16A4.85,4.85,0,0,1,161.52,221.63Z"/><path d="M169.19,223.71a10.75,10.75,0,0,0-.4,1.92,10.89,10.89,0,0,0-.06,1.89,10.27,10.27,0,0,0,.74,3.45,1.91,1.91,0,1,1-3.67.5v-.06a13.49,13.49,0,0,1,.39-2.23,12.66,12.66,0,0,1,.73-2,13.07,13.07,0,0,1,1-1.84A10.87,10.87,0,0,1,169.19,223.71Z"/><g class="cls-22"><path d="M178.43,214.28a31,31,0,0,1-5.94-9.4c-1.53,6.23,8.74,22.25,8.74,22.25l1.07-.07a6.37,6.37,0,0,0-.44,1h41.31V219.2c-12.84-1.08-22.74-1.61-29.21-.23A16.6,16.6,0,0,1,178.43,214.28Z"/></g><path d="M267.34,221.12a4.77,4.77,0,0,1,1.63,1.62,9.81,9.81,0,0,1,1.07,2.12,11.53,11.53,0,0,1,.38,1.13c.11.39.21.77.3,1.16s.16.79.22,1.18l.17,1.18a1.89,1.89,0,0,1-3.75.53,2,2,0,0,1,.06-.77v-.05l.28-1c.09-.34.16-.67.24-1s.12-.68.17-1a9,9,0,0,0,.1-1,8.46,8.46,0,0,0-.1-2.07A4.34,4.34,0,0,0,267.34,221.12Z"/><path d="M259.77,223.51a10.39,10.39,0,0,1,1.32,1.54,11.81,11.81,0,0,1,1.08,1.79,12.34,12.34,0,0,1,.81,2,13,13,0,0,1,.48,2.2v.05a1.9,1.9,0,1,1-3.69-.34,10,10,0,0,0,.44-1.67,9.75,9.75,0,0,0,.16-1.81,11.08,11.08,0,0,0-.14-1.89A10.66,10.66,0,0,0,259.77,223.51Z"/><path class="cls-21" d="M129.06,26.46h0c-3.31-3.3-8.67-2.71-12,.59l-.51.52-.51-.52c-3.31-3.3-8.67-3.89-12-.59h0a8.47,8.47,0,0,0,0,12l.52.52L115,49.34a2.24,2.24,0,0,0,3.16,0L128.54,39l.52-.52A8.47,8.47,0,0,0,129.06,26.46Z"/></g></g></svg>