<?xml version="1.0" encoding="utf-8"?>
<!-- Generator: Adobe Illustrator 25.0.0, SVG Export Plug-In . SVG Version: 6.00 Build 0)  -->
<svg version="1.1" id="Layer_1" xmlns="http://www.w3.org/2000/svg" xmlns:xlink="http://www.w3.org/1999/xlink" x="0px" y="0px"
	 viewBox="0 0 400 400" style="enable-background:new 0 0 400 400;" xml:space="preserve">
<style type="text/css">
	.st0{opacity:0.5;}
	.st1{fill:#1CCDF9;}
	.st2{opacity:0.4;}
	.st3{fill:#183589;}
	.st4{fill:#434242;}
	.st5{fill:#47A4FF;}
	.st6{fill:#F68F04;}
	.st7{fill:#73BAFF;}
	.st8{fill:#F1A30D;}
	.st9{fill:#FAB802;}
	.st10{fill:#FAD000;}
	.st11{fill:#FCEF67;}
	.st12{fill:none;stroke:#F5B903;stroke-width:0.5574;stroke-miterlimit:10;}
	.st13{opacity:0.3;fill:#939389;}
	.st14{fill:none;stroke:#EDEEF2;stroke-width:1.6721;stroke-miterlimit:10;}
	.st15{fill:#545351;}
	.st16{fill:#3B3A39;}
	.st17{opacity:0.3;fill:#FFEEF1;}
	.st18{fill:#FFFFFF;}
	.st19{fill:#E53328;}
	.st20{fill:#EEAE06;}
	.st21{fill:#A4E65E;}
	.st22{fill:#E9E8E4;}
	.st23{fill:#6EBC1A;}
	.st24{fill:#2889CD;}
	.st25{fill:#EDEEF2;}
	.st26{fill:#D3D3D3;}
	.st27{fill:#ECDCA8;}
	.st28{fill:#1D8246;}
	.st29{fill:#559C1C;}
	.st30{fill:#333231;}
	.st31{fill:none;stroke:#FAD000;stroke-width:1.1147;stroke-miterlimit:10;}
	.st32{opacity:0.1;fill:#939389;}
</style>
<g>
	<g class="st0">
		<ellipse class="st1" cx="393.6" cy="228.6" rx="6.4" ry="6.9"/>
	</g>
	<g class="st0">
		<ellipse class="st1" cx="42" cy="323.3" rx="6.4" ry="6.9"/>
	</g>
	<g class="st2">
		<path class="st3" d="M375.7,232.5c3.4,0,6.1-2.8,6.1-6.1v-1.4c0-3.4-2.8-6.1-6.1-6.1h-8.9c-3.4,0-6.1-2.8-6.1-6.1v-1.1
			c0-3.4,2.1-6.1,4.7-6.1c2.6,0,4.7-2.8,4.7-6.1v-1.4c0-3.4,0-8.9,0-12.3v-1.3c0-3.4-2.8-6.1-6.1-6.1h-5.3c-3.4,0-6.1-2.8-6.1-6.1
			v-1.1c0-3.4,0-6.2,0-6.2c0,0,0-2.8,0-6.2v-1.1c0-3.4,2.8-6.1,6.1-6.1h0.4c3.4,0,6.1-2.8,6.1-6.1v-1.3c0-3.4,0-6.2,0-6.2
			c0,0,0-2.8,0-6.2v-1.3c0-3.4-2.8-6.1-6.1-6.1h-24.4c-3.4,0-6.1-2.8-6.1-6.1v-1.3c0-3.4-2.8-6.1-6.1-6.1h-1.7
			c-3.4,0-6.1-2.8-6.1-6.1v-1.1c0-3.4,0-6.2,0-6.2c0,0,0-2.8,0-6.2v-1.3c0-3.4-2.8-6.1-6.1-6.1h-15.5c-3.4,0-6.1-2.8-6.1-6.1v-1.3
			c0-3.4-2.8-6.1-6.1-6.1h-12.3c-3.4,0-6.1-2.8-6.1-6.1v-1.3c0-3.4-2.8-6.1-6.1-6.1h-7.1c-3.4,0-6.1-2.8-6.1-6.1v-3.2
			c0-3.4-2.8-6.1-6.1-6.1h-2.6c-3.4,0-8.9,0-12.3,0H190c-3.4,0-8.9,0-12.3,0h-2.6c-3.4,0-6.1,2.8-6.1,6.1v3.2c0,3.4-2.8,6.1-6.1,6.1
			h-3.2c-3.4,0-6.1,2.8-6.1,6.1v1.3c0,3.4-2.8,6.1-6.1,6.1h-14.8c-3.4,0-6.1,2.8-6.1,6.1v1.3c0,3.4-2.8,6.1-6.1,6.1h-13
			c-3.4,0-6.1,2.8-6.1,6.1v1.4c0,3.4,0.3,6.1,0.7,6.1s0.7,2.8,0.7,6.1v1.1c0,3.4-2.8,6.1-6.1,6.1H89c-3.4,0-6.1,2.8-6.1,6.1v1.3
			c0,3.4-2.8,6.1-6.1,6.1H55.5c-3.4,0-6.1,2.8-6.1,6.1v1.3c0,3.4,2.8,6.2,6.1,6.2l4.5,0c3.4,0,6.1,2.8,6.1,6.2v1.1
			c0,3.4-2.8,6.1-6.1,6.1H46.6c-3.4,0-6.1,2.8-6.1,6.1v1.3c0,3.4-2.8,6.1-6.1,6.1H16.5c-3.4,0-6.1,2.8-6.1,6.1v1.4
			c0,3.4,2.8,6.1,6.1,6.1h15.6c3.4,0,6.1,2.8,6.1,6.1v1.1c0,3.4-2.8,6.1-6.1,6.1h-7c-3.4,0-6.1,2.8-6.1,6.1v1.4
			c0,3.4,2.8,6.1,6.1,6.1h22.3c3.4,0,6.1,2.8,6.1,6.1v1.1c0,3.4-2.8,6.1-6.1,6.1h-9.4c-3.4,0-6.1,2.8-6.1,6.1v1.4
			c0,3.4,2.6,6.1,5.9,6.1s5.9,2.8,5.9,6.1v1.3c0,3.4,0,6.1,0,6.1c0,0,0,2.8,0,6.1v1.1c0,3.4-2.8,6.1-6.1,6.1h-0.8
			c-3.4,0-6.1,2.8-6.1,6.1v1.4c0,3.4,2.8,6.1,6.1,6.1h2.9c3.4,0,6.1,2.8,6.1,6.1v1.3c0,3.4,2.8,6.1,6.1,6.1h27.3
			c3.4,0,6.1,2.8,6.1,6.1v1.3c0,3.4-2.8,6.1-6.1,6.1h-2.6c-3.4,0-6.1,2.8-6.1,6.1v1.1c0,3.4-2.8,6.1-6.1,6.1h-4.9
			c-3.4,0-6.1,2.8-6.1,6.1v1.4c0,3.4,2.8,6.1,6.1,6.1h10.2c3.4,0,6.1,2.8,6.1,6.1v1.3c0,3.4,2.8,6.1,6.1,6.1h11.2
			c3.4,0,6.1,2.8,6.1,6.1v1.3c0,3.4,2.8,6.1,6.1,6.1h9.9c3.4,0,6.1,2.8,6.1,6.1v1.3c0,3.4,2.8,6.1,6.1,6.1h6.3c3.4,0,8.9,0,12.3,0
			h109.9c3.4,0,8.9,0,12.3,0h10.2c3.4,0,6.1-2.8,6.1-6.1v-1.3c0-3.4,2.8-6.1,6.1-6.1h18.5c3.4,0,6.1-2.8,6.1-6.1V347
			c0-3.4,2.8-6.1,6.1-6.1h6.8c3.4,0,6.1-2.8,6.1-6.1v-1.3c0-3.4,0-8.9,0-12.3v-1.3c0-3.4,2.8-6.1,6.1-6.1h0.1c3.4,0,6.1-2.8,6.1-6.1
			v-1.3c0-3.4,0-6.2,0-6.2c0,0,0-2.8,0-6.2v-1.1c0-3.4,2.8-6.1,6.1-6.1h4.2c3.4,0,6.1-2.8,6.1-6.1v-1.3c0-3.4,0-6.2,0-6.2
			s0-2.8,0-6.2v-1.1c0-3.4,2.3-6.1,5.2-6.1s5.2-2.8,5.2-6.1V252c0-3.4-2.8-6.1-6.1-6.1h-1c-3.4,0-6.1-2.8-6.1-6.1v-1.1
			c0-3.4,2.8-6.1,6.1-6.1H375.7z"/>
	</g>
	<g>
		<rect x="313.9" y="249" transform="matrix(0.57 -0.8216 0.8216 0.57 -74.9407 370.2313)" class="st4" width="4.7" height="15.4"/>
		
			<ellipse transform="matrix(0.1301 -0.9915 0.9915 0.1301 17.5659 510.4843)" class="st4" cx="299.7" cy="245.2" rx="18.2" ry="18.2"/>
		
			<ellipse transform="matrix(0.9438 -0.3305 0.3305 0.9438 -64.2022 112.8244)" class="st5" cx="299.7" cy="245.2" rx="15.8" ry="15.8"/>
		<path class="st6" d="M341.8,274.6c-1.5,2.2-4.5,2.7-6.7,1.2l-16-11.3c-2.2-1.5-2.7-4.5-1.2-6.7l0,0c1.5-2.2,4.5-2.7,6.7-1.2
			l16,11.3C342.9,269.4,343.4,272.4,341.8,274.6L341.8,274.6z"/>
		<path class="st7" d="M286.8,236.1c-0.1,0.1-0.1,0.1-0.1,0.2l23.2,16.1l2.8,1.9c0.5-0.7,0.9-1.3,1.2-2c3.4-6.8,1.4-15.3-5-19.9
			C301.8,227.4,291.9,229,286.8,236.1z"/>
		<path class="st8" d="M319.6,256.3c-0.7,0.3-1.3,0.8-1.7,1.5c0,0-0.1,0.1-0.1,0.1l4.7,3.3l19.3,13.4c1.5-2.2,0.9-5.1-1.2-6.6
			l-16-11.3C323.1,255.6,321.2,255.5,319.6,256.3z"/>
	</g>
	<g>
		<g>
			
				<rect x="83.3" y="206.3" transform="matrix(8.311525e-03 -1 1 8.311525e-03 -118.8479 301.5188)" class="st9" width="18.6" height="8.7"/>
			<path class="st10" d="M110.8,222.5c0-4.8-3.8-8.7-8.6-8.8l-19.3-0.2c-4.8,0-8.7,3.8-8.8,8.6C89.1,222.3,92.7,222.4,110.8,222.5z"
				/>
			<path class="st9" d="M49.3,162.7l27.9,0.2l0,4.1c0,0-16.8,0-22.5-0.2c0,5.4,7.5,19.8,23.3,20.5c0,0,0,1.1,0,4.5
				C72.9,191.9,49.5,186.8,49.3,162.7z"/>
			<path class="st9" d="M137.3,163.4l-27.9-0.2l0,4.1c0,0,16.8,0.2,22.5,0.2c0,5.4-7.9,19.6-23.7,20.1c0,0,0,1.1,0,4.5
				C113.3,192.2,136.8,187.6,137.3,163.4z"/>
			<path class="st9" d="M93,157.2L65.9,157c-0.2,29.7,9.2,45.7,26.8,45.8c18.3,0.2,27.3-15.6,27.5-45.4L93,157.2z"/>
			<path class="st10" d="M65.8,162.8c-0.2,29.7,13.6,39.8,26.8,39.9c13.3,0.1,27.2-9.7,27.5-39.5L65.8,162.8z"/>
			<path class="st11" d="M84.4,178.2c0,0-0.7-8,8.2-7.9c7.9,0.1,8.6,5.7,8.6,6.8c-0.1,7.3-5.9,4.5-5.9,10.3l-4.9,0
				c0.1-6.8,5.5-6.3,5.5-9.9c0-1.4-0.8-3.3-3.1-3.3c-2.7,0-3.8,2.1-3.8,4.1C86.5,178.2,84.4,178.2,84.4,178.2z"/>
			
				<rect x="90.1" y="189.6" transform="matrix(8.311590e-03 -1 1 8.311590e-03 -100.2391 283.3684)" class="st11" width="5.4" height="5.2"/>
			<path class="st12" d="M93,164.2"/>
		</g>
		<path class="st13" d="M93,157.2L65.9,157c0,2,0,4,0.1,5.9l-0.1,0c0,0,0,0,0,0l-16.5-0.1c0.1,18.6,14,25.8,22.7,28.2
			c2.5,4,5.6,6.9,8.9,8.8c0.1,0,0.1,0.1,0.2,0.1c0.2,0.1,0.4,0.2,0.7,0.4c2,1.1,4.2,1.8,6.5,2.2l-0.1,11.2l-5.3,0
			c-4.8,0-8.7,3.8-8.8,8.6c8.2,0.1,13,0.1,18.7,0.2l0.5-65.2L93,157.2z M54.7,166.9c2.4,0.1,6.9,0.1,11.2,0.1
			c0.3,7.4,1.5,13.5,3.4,18.4C59.5,181.1,54.7,171.2,54.7,166.9z"/>
	</g>
	<g>
		<path class="st10" d="M343.6,190.1c8.3,0,16.7,6.1,16.7,15.2c0,9.1-7.6,10.3-7.6,15.8c0,5.5,0,11.8,0,11.8l-9.1,0l-9.1,0
			c0,0,0-6.3,0-11.8c0-5.5-7.6-6.7-7.6-15.7C326.9,196.3,335.3,190.1,343.6,190.1z"/>
		<path class="st14" d="M335,204.3c1.1,0,1.7,0.9,2.6,0.9c1,0,1.5-4.7,6-4.7c4.5,0,4.9,4.7,6,4.7c1.2,0,1.8-0.9,2.6-0.9
			c0.8,0,1.8,0.4,1.8,1.7c0,1.3-10.4,11.7-10.4,23.7c0-12-10.5-22.9-10.5-23.6C333.2,205.3,333.9,204.3,335,204.3z"/>
		
			<ellipse transform="matrix(1 -1.444067e-03 1.444067e-03 1 -0.3396 0.4965)" class="st15" cx="343.7" cy="235.4" rx="6.3" ry="5.6"/>
		
			<rect x="334.1" y="226.8" transform="matrix(1 -1.464243e-03 1.464243e-03 1 -0.3386 0.5035)" class="st16" width="19.1" height="9.2"/>
		<path class="st17" d="M360.3,205.3c0,9.1-7.6,10.3-7.6,15.8c0,1.9,0,4,0,5.8l0.4,0l0,9.2l-3.3,0c-0.4,2.7-3,4.9-6.1,4.9l-0.1-50.9
			C352,190.2,360.3,196.3,360.3,205.3z"/>
	</g>
	<g>
		<g>
			<path class="st18" d="M178.4,332.6c0,4.4-0.7,8.2-2.2,11.5c-1.5,3.3-3.5,5.9-6,7.9l7.7,6.1l-7.1,6l-10.2-8.2
				c-1,0.1-1.9,0.2-2.9,0.2c-4,0-7.6-0.9-10.8-2.8c-3.1-1.9-5.6-4.6-7.3-8c-1.8-3.5-2.7-7.5-2.7-12v-2.5c0-4.7,0.9-8.8,2.6-12.3
				c1.7-3.5,4.1-6.3,7.3-8.2c3.2-1.9,6.8-2.9,10.9-2.9c4,0,7.6,1,10.8,2.9c3.2,1.9,5.6,4.6,7.4,8.2c1.8,3.5,2.6,7.6,2.7,12.2V332.6z
				 M166.7,330.6c0-4.7-0.8-8.3-2.4-10.8c-1.6-2.4-3.8-3.7-6.8-3.7c-3,0-5.3,1.2-6.8,3.6c-1.5,2.4-2.3,6-2.3,10.6v2.2
				c0,4.7,0.8,8.3,2.3,10.8c1.5,2.5,3.8,3.7,6.9,3.7c2.9,0,5.2-1.2,6.7-3.7c1.6-2.5,2.3-6,2.4-10.6V330.6z"/>
			<path class="st18" d="M204.8,351.6c-2.3,3-5.5,4.5-9.4,4.5c-3.9,0-6.8-1.1-8.8-3.4c-2-2.3-3-5.5-3-9.7v-22.9h11v23
				c0,3,1.5,4.5,4.4,4.5c2.5,0,4.3-0.9,5.4-2.7v-24.8h11.1v35.3h-10.3L204.8,351.6z"/>
			<path class="st18" d="M221.4,311c0-1.6,0.6-2.9,1.7-3.9s2.6-1.5,4.4-1.5c1.8,0,3.3,0.5,4.4,1.5s1.7,2.3,1.7,3.9
				c0,1.6-0.6,2.9-1.7,3.9s-2.6,1.5-4.4,1.5c-1.8,0-3.3-0.5-4.4-1.5S221.4,312.5,221.4,311z M233.1,355.4h-11v-35.3h11V355.4z"/>
			<path class="st18" d="M252.8,346.9h16.1v8.5h-30v-6.1l15.7-20.7h-15v-8.5h29v5.9L252.8,346.9z"/>
		</g>
	</g>
	<path class="st19" d="M272.6,285.5c0,0,5.5-1.1,6.4-1.3c1-0.3,1.7-0.5,1.6-1.1c-0.1-0.9-1.6-1.1-1.9-2.3c-0.3-1.2,0.1-2.8,2.1-3.2
		c2-0.4,3.1,1,3.2,1.8c0.3,1.8-0.9,2.5-0.8,3.3c0.1,0.4,0.8,0.6,1.8,0.4c1-0.2,6.5-1.3,6.5-1.3l1.2,6.1c0,0,0.4,2,1.2,1.9
		c0.8-0.2,1.2-1.6,2.4-1.9c1.2-0.3,2.8,0,3.2,2.2c0.4,2.1-1,2.9-2,3.1c-1.4,0.3-2.3-0.8-3.1-0.7c0,0-0.7,0.3-0.4,2.1
		c0.3,1.7,1.2,6.1,1.2,6.1l-6.4,1.3c0,0-1.6,0.4-1.8-0.3s1.2-1.8,0.7-3.3c-0.5-1.4-1.7-2.2-3.2-1.9c-1.4,0.3-2.5,1.4-2.3,3.1
		c0.2,1.6,1.8,1.7,1.9,2.5c0,0,0.3,0.7-2.2,1.2c-2.5,0.5-5.7,1.2-5.7,1.2s-0.9-4.4-1-5.1c-0.1-0.7-0.7-3,0.2-3.2s1.5,1.1,3.2,0.7
		c1.7-0.3,2-2.1,1.8-3.5c-0.3-1.3-1.8-2.2-3.1-2s-1.6,1.8-2.4,2s-1.2-1.8-1.5-3.2C273.3,288.8,272.6,285.5,272.6,285.5z"/>
	<path class="st20" d="M318,279.4c0,0,1.1,5.5,1.3,6.4c0.3,1,0.5,1.7,1.1,1.6c0.9-0.1,1.1-1.6,2.3-1.9c1.2-0.3,2.8,0.1,3.2,2.1
		c0.4,2-1,3.1-1.8,3.2c-1.8,0.3-2.5-0.9-3.3-0.8c-0.4,0.1-0.6,0.8-0.4,1.8c0.2,1,1.3,6.5,1.3,6.5l-6.1,1.2c0,0-2,0.4-1.9,1.2
		c0.2,0.8,1.6,1.2,1.9,2.4c0.3,1.2,0,2.8-2.2,3.2c-2.1,0.4-2.9-1-3.1-2c-0.3-1.4,0.8-2.3,0.7-3.1c0,0-0.3-0.7-2.1-0.4
		c-1.7,0.3-6.1,1.2-6.1,1.2l-1.3-6.4c0,0-0.4-1.6,0.3-1.8c0.7-0.2,1.8,1.2,3.3,0.7s2.2-1.7,1.9-3.2c-0.3-1.4-1.4-2.5-3.1-2.3
		c-1.6,0.2-1.7,1.8-2.5,1.9c0,0-0.7,0.3-1.2-2.2c-0.5-2.5-1.2-5.7-1.2-5.7s4.4-0.9,5.1-1c0.7-0.1,3-0.7,3.2,0.2
		c0.2,0.8-1.1,1.5-0.7,3.2c0.3,1.7,2.1,2,3.5,1.8c1.3-0.3,2.2-1.8,2-3.1c-0.3-1.3-1.8-1.6-2-2.4c-0.2-0.8,1.8-1.2,3.2-1.5
		C314.7,280,318,279.4,318,279.4z"/>
	<path class="st19" d="M119.6,324.1c0,0-5.5,0.7-6.4,0.9c-1.1,0.2-1.7,0.4-1.7,1c0,0.9,1.6,1.2,1.8,2.5c0.2,1.2-0.3,2.8-2.3,3.1
		c-2,0.3-3-1.2-3.1-2c-0.2-1.8,1.1-2.4,0.9-3.2c-0.1-0.4-0.8-0.7-1.8-0.5c-1,0.1-6.5,0.9-6.5,0.9l-0.9-6.1c0,0-0.3-2-1.1-1.9
		c-0.8,0.1-1.2,1.5-2.5,1.7c-1.3,0.2-2.8-0.2-3.1-2.4c-0.3-2.2,1.2-2.9,2.2-3c1.4-0.2,2.3,0.9,3,0.9c0,0,0.8-0.3,0.5-2
		c-0.2-1.7-0.9-6.2-0.9-6.2l6.4-0.9c0,0,1.6-0.3,1.8,0.4c0.2,0.7-1.3,1.8-0.9,3.2c0.4,1.5,1.6,2.3,3,2.1c1.4-0.2,2.6-1.3,2.5-3
		c-0.1-1.6-1.7-1.9-1.8-2.6c0,0-0.2-0.8,2.3-1.1c2.5-0.4,5.8-0.9,5.8-0.9s0.7,4.5,0.7,5.2c0.1,0.7,0.5,3-0.4,3.2
		c-0.9,0.1-1.5-1.2-3.2-0.9c-1.7,0.2-2.2,2-2,3.4c0.2,1.3,1.7,2.3,3,2.1c1.3-0.2,1.7-1.7,2.5-1.8c0.9-0.1,1.1,1.9,1.3,3.3
		C119.1,320.8,119.6,324.1,119.6,324.1z"/>
	<path class="st21" d="M278.9,311.2c0,0,5.5-1.1,6.4-1.3c1-0.3,1.7-0.5,1.6-1.1c-0.1-0.9-1.6-1.1-1.9-2.3c-0.3-1.2,0.1-2.8,2.1-3.2
		c2-0.4,3.1,1,3.2,1.8c0.3,1.8-0.9,2.5-0.8,3.3c0.1,0.4,0.8,0.6,1.8,0.4c1-0.2,6.5-1.3,6.5-1.3l1.2,6.1c0,0,0.4,2,1.2,1.9
		c0.8-0.2,1.2-1.6,2.4-1.9c1.2-0.3,2.8,0,3.2,2.2c0.4,2.1-1,2.9-2,3.1c-1.4,0.3-2.3-0.8-3.1-0.7c0,0-0.7,0.3-0.4,2.1
		c0.3,1.7,1.2,6.1,1.2,6.1l-6.4,1.3c0,0-1.6,0.4-1.8-0.3c-0.2-0.7,1.2-1.8,0.7-3.3c-0.5-1.4-1.7-2.2-3.2-1.9
		c-1.4,0.3-2.5,1.4-2.3,3.1c0.2,1.6,1.8,1.7,1.9,2.5c0,0,0.3,0.7-2.2,1.2c-2.5,0.5-5.7,1.2-5.7,1.2s-0.9-4.4-1-5.1
		c-0.1-0.7-0.7-3,0.2-3.2c0.8-0.2,1.5,1.1,3.2,0.7c1.7-0.3,2-2.1,1.8-3.5c-0.3-1.3-1.8-2.2-3.1-2c-1.3,0.3-1.6,1.8-2.4,2
		c-0.8,0.2-1.2-1.8-1.5-3.2C279.6,314.5,278.9,311.2,278.9,311.2z"/>
	<path class="st10" d="M323.6,305.5c0,0,1.1,5.5,1.3,6.4c0.3,1,0.5,1.7,1.1,1.6c0.9-0.1,1.1-1.6,2.3-1.9c1.2-0.3,2.8,0.1,3.2,2.1
		c0.4,2-1,3.1-1.8,3.2c-1.8,0.3-2.5-0.9-3.3-0.8c-0.4,0.1-0.6,0.8-0.4,1.8c0.2,1,1.3,6.5,1.3,6.5l-6.1,1.2c0,0-2,0.4-1.9,1.2
		c0.2,0.8,1.6,1.2,1.9,2.4c0.3,1.2,0,2.8-2.2,3.2c-2.1,0.4-2.9-1-3.1-2c-0.3-1.4,0.8-2.3,0.7-3.1c0,0-0.3-0.7-2.1-0.4
		c-1.7,0.3-6.1,1.2-6.1,1.2l-1.3-6.4c0,0-0.4-1.6,0.3-1.8c0.7-0.2,1.8,1.2,3.3,0.7c1.4-0.5,2.2-1.7,1.9-3.2
		c-0.3-1.4-1.4-2.5-3.1-2.3c-1.6,0.2-1.7,1.8-2.5,1.9c0,0-0.7,0.3-1.2-2.2c-0.5-2.5-1.2-5.7-1.2-5.7s4.4-0.9,5.1-1
		c0.7-0.1,3-0.7,3.2,0.2c0.2,0.8-1.1,1.5-0.7,3.2c0.3,1.7,2.1,2,3.5,1.8c1.3-0.3,2.2-1.8,2-3.1s-1.8-1.6-2-2.4
		c-0.2-0.8,1.8-1.2,3.2-1.5C320.3,306.1,323.6,305.5,323.6,305.5z"/>
	<path class="st22" d="M305.5,79.4H260c-6.2,0-11.3,5-11.3,11.3v33c0,6.2,5,11.3,11.3,11.3h11.4c0.1,6.6-2.7,12.7-3.3,14.6
		c9.6-4.4,14.4-10.1,16.8-14.6h20.6c6.2,0,11.3-5,11.3-11.3v-33C316.7,84.5,311.7,79.4,305.5,79.4z"/>
	<path class="st18" d="M355.6,126.6c-0.1-14.4-13.9-26-30.9-25.9c-17,0.1-30.7,11.8-30.7,26.1c0.1,14.4,13.9,26,30.9,25.9
		c0.4,0,0.9,0,1.3,0c2.9,4.1,8.1,8.9,17,12.4c-0.8-1.9-4.1-8.3-4.3-15.3C349,145.4,355.7,136.7,355.6,126.6z"/>
	<path class="st18" d="M261.6,179.3c0.1-13.7,13.2-24.8,29.4-24.7c16.2,0.1,29.3,11.2,29.2,24.9c-0.1,13.7-13.2,24.8-29.4,24.7
		c-0.4,0-0.9,0-1.3,0c-2.8,4-7.7,8.5-16.3,11.8c0.7-1.8,3.9-8,4.1-14.6C268,197.2,261.6,188.9,261.6,179.3z"/>
	<polygon class="st23" points="308.8,124.9 321.6,134 344.1,113.8 321.8,142.3 	"/>
	<g>
		<g>
			<path class="st10" d="M270.7,103.2c0,0-0.9-10.2,10.5-10.1c10,0.1,11,7.2,11,8.7c-0.1,9.3-7.5,5.7-7.5,13.1l-6.2-0.1
				c0.1-8.7,7-8,7-12.6c0-1.8-1-4.2-4-4.2c-3.4,0-4.8,2.7-4.9,5.2C273.2,103.2,270.7,103.2,270.7,103.2z"/>
			
				<rect x="278" y="117.1" transform="matrix(8.316471e-03 -1 1 8.316471e-03 158.6296 400.7975)" class="st10" width="6.8" height="6.6"/>
		</g>
	</g>
	<g>
		<path class="st18" d="M253.3,287.6c0,2.1-1.7,3.9-3.9,3.9h-96.5c-2.1,0-3.9-1.7-3.9-3.9V146.4c0-2.1,1.7-3.9,3.9-3.9h96.5
			c2.1,0,3.9,1.7,3.9,3.9V287.6z"/>
		<path class="st16" d="M249.4,293.7h-96.5c-3.4,0-6.1-2.7-6.1-6.1V146.4c0-3.4,2.7-6.1,6.1-6.1h96.5c3.4,0,6.1,2.7,6.1,6.1v141.2
			C255.6,291,252.8,293.7,249.4,293.7z M152.9,144.7c-0.9,0-1.7,0.7-1.7,1.7v141.2c0,0.9,0.7,1.7,1.7,1.7h96.5
			c0.9,0,1.7-0.7,1.7-1.7V146.4c0-0.9-0.7-1.7-1.7-1.7H152.9z"/>
		<rect x="165.3" y="135.1" class="st10" width="71.7" height="24.2"/>
		<rect x="165.3" y="148" class="st9" width="71.7" height="11.4"/>
		<path class="st10" d="M210.6,135.1c0,5-4,9-9,9c-5,0-9-4-9-9c0-5,4-9,9-9C206.6,126.1,210.6,130.2,210.6,135.1z"/>
		<path class="st24" d="M205.6,135.1c0,2.2-1.8,4-4,4c-2.2,0-4-1.8-4-4c0-2.2,1.8-4,4-4C203.9,131.1,205.6,132.9,205.6,135.1z"/>
		<rect x="157.3" y="173.8" class="st25" width="82.1" height="2"/>
		<rect x="157.3" y="177.5" class="st25" width="54" height="2"/>
		<rect x="157.3" y="181.2" class="st25" width="41" height="2"/>
		<rect x="174.8" y="198.5" class="st25" width="65.2" height="3.1"/>
		<rect x="174.8" y="214.1" class="st25" width="65.2" height="3.1"/>
		<rect x="174.8" y="230" class="st25" width="65.2" height="3.1"/>
		<rect x="174.8" y="244.8" class="st25" width="65.2" height="3.1"/>
		<rect x="174.2" y="258.8" class="st25" width="65.2" height="3.1"/>
		<g>
			<g>
				<path class="st25" d="M167.8,194.9v8.9H159v-8.9H167.8 M169.5,193.2h-12.2v12.2h12.2V193.2L169.5,193.2z"/>
			</g>
		</g>
		<g>
			<g>
				<path class="st25" d="M167.8,210.7v8.9H159v-8.9H167.8 M169.5,209h-12.2v12.2h12.2V209L169.5,209z"/>
			</g>
		</g>
		<g>
			<g>
				<path class="st25" d="M167.8,226.5v8.9H159v-8.9H167.8 M169.5,224.8h-12.2V237h12.2V224.8L169.5,224.8z"/>
			</g>
		</g>
		<g>
			<g>
				<path class="st25" d="M167.8,242.5v8.9H159v-8.9H167.8 M169.5,240.8h-12.2V253h12.2V240.8L169.5,240.8z"/>
			</g>
		</g>
		<g>
			<g>
				<path class="st25" d="M167.8,258.2v8.9H159v-8.9H167.8 M169.5,256.5h-12.2v12.2h12.2V256.5L169.5,256.5z"/>
			</g>
		</g>
		<polygon class="st23" points="158.4,195.9 163.1,199.3 171.5,191.8 163.2,202.4 		"/>
		<g>
			<path class="st6" d="M228.8,267.1c1.7,1.7,1.7,4.4,0,6.1l0,0c-1.7,1.7-4.4,1.7-6.1,0l-6-6c-1.7-1.7-1.7-4.4,0-6.1l0,0
				c1.7-1.7,4.4-1.7,6.1,0L228.8,267.1z"/>
			
				<rect x="218.8" y="265.5" transform="matrix(0.708 -0.7062 0.7062 0.708 -123.7797 235.7437)" class="st26" width="8.7" height="4.2"/>
			<polygon class="st27" points="173.6,224.1 179.8,217.9 167.9,212.1 			"/>
			<polygon class="st28" points="167.7,212 169.5,215.8 171.4,213.8 			"/>
			
				<rect x="194.8" y="211.7" transform="matrix(0.7071 -0.7071 0.7071 0.7071 -113.8762 212.1882)" class="st29" width="8.8" height="63.8"/>
			
				<rect x="197.3" y="211.7" transform="matrix(0.7071 -0.7071 0.7071 0.7071 -113.8759 212.185)" class="st23" width="3.8" height="63.8"/>
		</g>
		<polygon class="st23" points="158.4,211.9 163.1,215.3 171.5,207.8 163.2,218.4 		"/>
	</g>
	<g>
		<path class="st18" d="M82.4,246.8c0,9.3-7.5,16.8-16.8,16.8c-9.3,0-16.8-7.5-16.8-16.8c0-9.3,7.5-16.8,16.8-16.8
			C74.9,230,82.4,237.5,82.4,246.8z"/>
		<path class="st19" d="M65.6,264.5c-9.7,0-17.7-7.9-17.7-17.7c0-9.8,7.9-17.7,17.7-17.7c9.8,0,17.7,7.9,17.7,17.7
			C83.4,256.5,75.4,264.5,65.6,264.5L65.6,264.5z M65.6,230.9c-8.8,0-15.9,7.2-15.9,15.9c0,8.7,7.1,15.8,15.9,15.8v0.9l0-0.9
			c8.8,0,15.9-7.2,15.8-15.9C81.5,238,74.4,230.9,65.6,230.9z"/>
		<path class="st19" d="M67.7,225.3c0,0.3-0.2,0.5-0.5,0.5l-3.3,0c-0.3,0-0.5-0.2-0.5-0.5l0-1.7c0-0.3,0.2-0.5,0.5-0.5l3.3,0
			c0.3,0,0.5,0.2,0.5,0.5L67.7,225.3z"/>
		
			<rect x="64.9" y="225.7" transform="matrix(1 -1.642795e-03 1.642795e-03 1 -0.3736 0.1081)" class="st19" width="1.3" height="3.5"/>
		<path class="st19" d="M65.5,228.9c-2.6,0-4.8-2.1-4.8-4.8c0-2.6,2.1-4.8,4.8-4.8c2.6,0,4.8,2.1,4.8,4.8
			C70.3,226.7,68.2,228.9,65.5,228.9L65.5,228.9z M65.5,220.2c-2.1,0-3.9,1.7-3.9,3.9c0,2.1,1.7,3.9,3.9,3.9v0.5l0-0.5
			c2.1,0,3.9-1.7,3.9-3.9C69.4,222,67.7,220.2,65.5,220.2z"/>
		<path class="st19" d="M68.3,246.8c0,1.5-1.2,2.7-2.7,2.7c-1.5,0-2.7-1.2-2.7-2.7c0-1.5,1.2-2.7,2.7-2.7
			C67.1,244.2,68.2,245.4,68.3,246.8z"/>
		<polygon class="st19" points="74,239 67.8,246.2 66.6,245.1 		"/>
		<path class="st19" d="M78.1,247.2c-0.2,0-0.5-0.2-0.5-0.5l0,0c0-0.2,0.2-0.5,0.5-0.5l1.9,0c0.2,0,0.5,0.2,0.5,0.5l0,0
			c0,0.2-0.2,0.5-0.5,0.5L78.1,247.2z"/>
		<path class="st19" d="M51,247.2c-0.2,0-0.5-0.2-0.5-0.5l0,0c0-0.2,0.2-0.5,0.5-0.5l1.9,0c0.2,0,0.5,0.2,0.5,0.5l0,0
			c0,0.3-0.2,0.5-0.5,0.5L51,247.2z"/>
		<path class="st19" d="M65.9,234.2c0,0.2-0.2,0.5-0.5,0.5l0,0c-0.2,0-0.5-0.2-0.5-0.5l0-1.9c0-0.2,0.2-0.5,0.5-0.5l0,0
			c0.2,0,0.5,0.2,0.5,0.5L65.9,234.2z"/>
		<path class="st19" d="M65.9,261.3c0,0.2-0.2,0.5-0.5,0.5l0,0c-0.2,0-0.5-0.2-0.5-0.5l0-1.9c0-0.2,0.2-0.5,0.5-0.5l0,0
			c0.3,0,0.5,0.2,0.5,0.5L65.9,261.3z"/>
	</g>
	<g>
		<path class="st18" d="M141.5,236.4l-25.1-12.8c-0.8,0.9-1.5,1.9-2.1,3.1l-1.2,2.4l-4.5,8.9c-3.6,7.2-0.8,15.9,6.4,19.6
			c7.2,3.6,15.9,0.8,19.6-6.4l4.5-8.9l1.2-2.4C140.8,238.7,141.2,237.6,141.5,236.4z"/>
		
			<rect x="105.8" y="254.5" transform="matrix(0.453 -0.8915 0.8915 0.453 -165.9769 243.2521)" class="st18" width="18.8" height="4.8"/>
		<path class="st18" d="M87.7,280l25.1,12.8c0.8-0.9,1.5-1.9,2.1-3.1l1.2-2.4l4.5-8.9c3.6-7.2,0.8-15.9-6.4-19.6
			c-7.2-3.6-15.9-0.8-19.6,6.4l-4.5,8.9l-1.2,2.4C88.4,277.6,88,278.8,87.7,280z"/>
		<path class="st23" d="M114.4,263.9l3.9-7.6l-4.3-2.2l-3.9,7.6c-4.6-1.1-9.5,1-11.7,5.4l-3.2,6.3l-0.9,1.7
			c-0.4,0.8-0.7,1.7-0.9,2.5l17.9,9.1c0.6-0.7,1.1-1.4,1.5-2.2l0.9-1.7l3.2-6.3C119.2,272.1,118,266.9,114.4,263.9z"/>
		<path class="st13" d="M112.3,228.1l0.9,0.4l-0.3,0.5l-4.5,8.9c-3.3,6.5-1.3,14.3,4.5,18.5l-0.8,1.5c-6.7-2.2-14.3,0.7-17.6,7.2
			L90,274l-0.3,0.5l-0.9-0.4c-1.6-0.8-3.5-0.2-4.3,1.4c-0.8,1.6-0.2,3.5,1.4,4.3l13.7,7l29.2-57.4l-13.7-7c-1.6-0.8-3.5-0.2-4.3,1.4
			C110.1,225.4,110.7,227.3,112.3,228.1z"/>
		<path class="st4" d="M144.4,240.8c-0.8,1.6-2.7,2.2-4.3,1.4l-27.7-14.1c-1.6-0.8-2.2-2.7-1.4-4.3l0,0c0.8-1.6,2.7-2.2,4.3-1.4
			l27.7,14.1C144.6,237.3,145.2,239.3,144.4,240.8L144.4,240.8z"/>
		<path class="st4" d="M84.7,275.5c0.8-1.6,2.7-2.2,4.3-1.4l27.7,14.1c1.6,0.8,2.2,2.7,1.4,4.3l0,0c-0.8,1.6-2.7,2.2-4.3,1.4
			l-27.7-14.1C84.6,279,83.9,277.1,84.7,275.5L84.7,275.5z"/>
		<path class="st23" d="M111.5,241.4c-2.2,4.4-1,9.6,2.6,12.6l-3.9,7.6l4.3,2.2l3.9-7.6c4.6,1.1,9.4-1,11.7-5.3L111.5,241.4z"/>
	</g>
	<g>
		<g>
			<rect x="288.4" y="193.4" class="st19" width="5.4" height="4.6"/>
			<polygon class="st19" points="285.7,163.6 296.2,163.6 293.7,190.2 288.5,190.2 			"/>
		</g>
	</g>
	<path class="st22" d="M140.7,115.3c0.3-1.1,0.5-2.2,0.5-3.3c0-6.5-5.3-11.8-11.8-11.8c-1.6,0-3,0.3-4.4,0.9
		c-2.7-6.4-9.1-10.9-16.5-10.9c-8.9,0-16.3,6.5-17.7,15c-2.6-1.5-5.7-2.4-9-2.4c-9.9,0-17.9,8-17.9,17.9s8,17.9,17.9,17.9
		c0.7,0,1.4,0,2.1-0.1h55.8c5.7,0,10.4-4.7,10.4-10.4v-2.4C150.1,120.3,146,115.8,140.7,115.3z"/>
	<path class="st18" d="M169.3,103.5c0.1-0.6,0.1-1.3,0.1-2c0-8.7-7.1-15.8-15.8-15.8c-4.5,0-8.6,1.9-11.5,5c-2.2-2-5.2-3.2-8.4-3.2
		c-7,0-12.7,5.7-12.7,12.7c0,1.1,0.2,2.3,0.4,3.3h-1c-5.4,0-9.8,4.4-9.8,9.8s4.4,9.8,9.8,9.8h48.1c5.4,0,9.8-4.4,9.8-9.8
		C178.4,108.1,174.3,103.8,169.3,103.5z"/>
	<g>
		<path class="st1" d="M33.2,137.2c0-1.4-1.3-2.5-2.8-2.5s-2.8-1.3-2.8-2.8s-1.1-2.8-2.5-2.8c-1.4,0-2.5,1.3-2.5,2.8
			s-1.3,2.8-2.8,2.8s-2.8,1.1-2.8,2.5c0,1.4,1.3,2.5,2.8,2.5s2.8,1.3,2.8,2.8s1.1,2.8,2.5,2.8c1.4,0,2.5-1.3,2.5-2.8
			s1.3-2.8,2.8-2.8S33.2,138.6,33.2,137.2z"/>
	</g>
	<g>
		<path class="st1" d="M24.8,269c0-1.1-1-2-2.3-2s-2.3-1-2.3-2.3c0-1.3-0.9-2.3-2-2.3c-1.1,0-2,1-2,2.3c0,1.3-1,2.3-2.3,2.3
			s-2.3,0.9-2.3,2c0,1.1,1,2,2.3,2s2.3,1,2.3,2.3c0,1.3,0.9,2.3,2,2.3c1.1,0,2-1,2-2.3c0-1.3,1-2.3,2.3-2.3S24.8,270.1,24.8,269z"/>
	</g>
	<g>
		<path class="st18" d="M325.8,44.3c0-1.1-1-2-2.3-2s-2.3-1-2.3-2.3c0-1.3-0.9-2.3-2-2.3s-2,1-2,2.3c0,1.3-1,2.3-2.3,2.3
			c-1.3,0-2.3,0.9-2.3,2s1,2,2.3,2c1.3,0,2.3,1,2.3,2.3c0,1.3,0.9,2.3,2,2.3s2-1,2-2.3c0-1.3,1-2.3,2.3-2.3S325.8,45.4,325.8,44.3z"
			/>
	</g>
	<g>
		<path class="st18" d="M144.9,52.8c1.1-0.3,1.8-1.5,1.5-2.7s0.5-2.4,1.7-2.7s2-1.4,1.8-2.5s-1.5-1.8-2.7-1.5s-2.4-0.5-2.7-1.7
			c-0.3-1.2-1.4-2-2.5-1.7c-1.1,0.3-1.8,1.5-1.5,2.7c0.3,1.2-0.5,2.4-1.7,2.7c-1.2,0.3-2,1.4-1.7,2.5c0.3,1.1,1.5,1.8,2.7,1.5
			s2.4,0.5,2.7,1.7S143.8,53.1,144.9,52.8z"/>
	</g>
	<g>
		<path class="st18" d="M66.9,366.8c0.6-1,0.2-2.3-0.9-2.9c-1.1-0.7-1.4-2.1-0.8-3.1s0.4-2.4-0.6-3c-1-0.6-2.3-0.2-2.9,0.9
			c-0.7,1.1-2.1,1.4-3.1,0.8c-1.1-0.7-2.4-0.4-3,0.6c-0.6,1-0.2,2.3,0.9,2.9c1.1,0.7,1.4,2.1,0.8,3.1c-0.7,1.1-0.4,2.4,0.6,3
			c1,0.6,2.3,0.2,2.9-0.9s2.1-1.4,3.1-0.8S66.4,367.7,66.9,366.8z"/>
	</g>
	<g>
		<path class="st1" d="M391.7,139.5c0-1.1-1-2-2.3-2s-2.3-1-2.3-2.3c0-1.3-0.9-2.3-2-2.3s-2,1-2,2.3c0,1.3-1,2.3-2.3,2.3
			c-1.3,0-2.3,0.9-2.3,2c0,1.1,1,2,2.3,2c1.3,0,2.3,1,2.3,2.3c0,1.3,0.9,2.3,2,2.3s2-1,2-2.3c0-1.3,1-2.3,2.3-2.3
			S391.7,140.6,391.7,139.5z"/>
	</g>
	<g>
		<path class="st1" d="M362,332c0-1.1-1-2-2.3-2c-1.3,0-2.3-1-2.3-2.3c0-1.3-0.9-2.3-2-2.3s-2,1-2,2.3c0,1.3-1,2.3-2.3,2.3
			s-2.3,0.9-2.3,2c0,1.1,1,2,2.3,2s2.3,1,2.3,2.3c0,1.3,0.9,2.3,2,2.3s2-1,2-2.3c0-1.3,1-2.3,2.3-2.3C361,334,362,333.1,362,332z"/>
	</g>
	<circle class="st18" cx="271.7" cy="35.3" r="5.3"/>
	<circle class="st18" cx="381" cy="87.1" r="3.1"/>
	<circle class="st18" cx="32.1" cy="83" r="3.1"/>
	<circle class="st18" cx="3.1" cy="218.6" r="3.1"/>
	<circle class="st18" cx="391" cy="301.9" r="6.9"/>
	<ellipse transform="matrix(0.7071 -0.7071 0.7071 0.7071 -13.1368 72.9008)" class="st1" cx="81.4" cy="52.3" rx="5.2" ry="5.2"/>
	<ellipse transform="matrix(0.2307 -0.973 0.973 0.2307 192.2119 386.5984)" class="st1" cx="340.6" cy="71.7" rx="5.2" ry="5.2"/>
	<g>
		<g>
			<path class="st16" d="M181.8,75.2l-0.1,21.3c0,0,1.2,6.9,25.9,6.9c24.7,0,25.8-7,25.8-7V74.1h-51.8"/>
			<polygon class="st30" points="248,69.6 207.7,53.2 206.8,53.2 166.4,69.6 206.6,85.9 207.8,85.9 			"/>
			<ellipse class="st16" cx="207.5" cy="68.8" rx="4.3" ry="1.9"/>
			<polyline class="st31" points="207.9,68.2 225.9,77.2 225.8,117 			"/>
			<path class="st10" d="M228.3,118c0,1.4-1.2,2.5-2.7,2.5c-1.5,0-2.7-1.1-2.7-2.5c0-1.4,1.2-2.5,2.7-2.5
				C227.1,115.4,228.3,116.6,228.3,118z"/>
			<g>
				<path class="st10" d="M227.8,122.9c-1.2-3.4-3.2-3.4-4.4,0c-1.2,3.4-0.2,6.2,2.2,6.2S229,126.3,227.8,122.9z"/>
			</g>
			<ellipse class="st30" cx="207.5" cy="68.8" rx="3.2" ry="1.4"/>
		</g>
		<path class="st32" d="M206.7,53.2l-40.4,16.3l15.4,6.3l-0.1,20.7c0,0,1.2,6.8,25.5,6.9V53.2H206.7z"/>
	</g>
</g>
</svg>
