<svg xmlns="http://www.w3.org/2000/svg" xmlns:xlink="http://www.w3.org/1999/xlink" viewBox="0 0 378.25 224.68"><defs><style>.cls-1,.cls-9{fill:none;}.cls-2{fill:#0d2b69;}.cls-3{fill:#434242;}.cls-4{fill:#47a4ff;}.cls-5{fill:#f68f04;}.cls-6{fill:#73baff;}.cls-7{fill:#f1a30d;}.cls-8{fill:#fad000;}.cls-9{stroke:#edeef2;stroke-miterlimit:10;stroke-width:1.9px;}.cls-10{fill:#545351;}.cls-11{fill:#3b3a39;}.cls-12{fill:#ffeef1;}.cls-12,.cls-18{opacity:0.3;}.cls-13{fill:#ff001f;}.cls-14{fill:#1ccdf9;}.cls-15{fill:#fff;}.cls-16{fill:#f9a429;}.cls-17{fill:#f9fcfd;}.cls-19{fill:#eb4653;}.cls-20{fill:#151a33;}.cls-21{clip-path:url(#clip-path);}.cls-22{opacity:0.5;}.cls-23{clip-path:url(#clip-path-2);}.cls-24{fill:#4089ff;}.cls-25{fill:#f01988;}</style><clipPath id="clip-path"><path class="cls-1" d="M253,57.15s12.33-43.65,0-52.92-37.86,15.06-37.86,15.06c-17-8.23-31.15-7.24-31.15-7.24s-14.17-1-31.15,7.24c0,0-25.53-24.33-37.86-15.06s0,52.92,0,52.92h0a139.14,139.14,0,0,0-11.83,30.6,37.63,37.63,0,0,0,4.2,29.28c9.23,15.13,30.47,32.26,76.64,32.08,46.17.18,67.41-17,76.64-32.08a37.67,37.67,0,0,0,4.2-29.28A139.64,139.64,0,0,0,253,57.15"/></clipPath><clipPath id="clip-path-2"><path class="cls-1" d="M253,58.35s12.33-43.64,0-52.92S215.15,20.5,215.15,20.5c-17-8.24-31.15-7.25-31.15-7.25s-14.17-1-31.15,7.25c0,0-25.53-24.34-37.86-15.07s0,52.92,0,52.92h0A139.24,139.24,0,0,0,103.16,89a37.64,37.64,0,0,0,4.2,29.28c9.23,15.12,30.47,32.25,76.64,32.07,46.17.18,67.41-16.95,76.64-32.07A37.69,37.69,0,0,0,264.84,89,139.74,139.74,0,0,0,253,58.35"/></clipPath></defs><g id="Layer_2" data-name="Layer 2"><g id="Layer_1-2" data-name="Layer 1"><path class="cls-2" d="M370,147.49a32.73,32.73,0,0,1-9.41,23l-.22.23a32.78,32.78,0,0,1-23.25,9.63H311.56a22.16,22.16,0,0,1,9.19,42.33,23.8,23.8,0,0,1-3.22,1.18,22.58,22.58,0,0,1-6,.81H139.86a22.12,22.12,0,0,1-22.08-20.27c0-.64-.08-1.27-.08-1.89A22.06,22.06,0,0,1,123.12,188l.42-.47c.21-.23.42-.46.65-.68a22.09,22.09,0,0,1,15.67-6.49H82.35a32.88,32.88,0,1,1,0-65.75H32.87a32.87,32.87,0,1,1,0-65.74h93.62a19.05,19.05,0,0,1,0-38.1H281a19.05,19.05,0,0,1,0,38.1h64.41a32.87,32.87,0,1,1,0,65.74h-8.31A32.88,32.88,0,0,1,370,147.49Z"/><rect class="cls-3" x="262.22" y="142.45" width="29.62" height="8.99" transform="translate(-35.89 167.34) rotate(-31.67)"/><circle class="cls-3" cx="310.03" cy="126.59" r="35" transform="translate(41.66 326.89) rotate(-58.95)"/><circle class="cls-4" cx="310.03" cy="126.59" r="30.46" transform="translate(160.67 426.31) rotate(-85.72)"/><path class="cls-5" d="M225.78,178.26a9.29,9.29,0,0,1,3.15-12.75L261.19,146a9.27,9.27,0,0,1,12.74,3.14h0a9.27,9.27,0,0,1-3.14,12.74l-32.26,19.5a9.29,9.29,0,0,1-12.75-3.14Z"/><path class="cls-6" d="M336.07,110.8c-.08-.15-.18-.29-.27-.43l-46.3,28.57L284,142.35a31.23,31.23,0,0,0,2.67,3.71,30.45,30.45,0,0,0,49.42-35.26Z"/><path class="cls-7" d="M275.13,153.16a9.06,9.06,0,0,0-1.31-4.17c-.05-.09-.12-.18-.18-.27l-9.35,5.77-38.51,23.76a9.29,9.29,0,0,0,12.64,3l32.26-19.5A9.26,9.26,0,0,0,275.13,153.16Z"/><path class="cls-8" d="M311,26.86c8.41,4.4,13.56,15,8.78,24.16s-13.06,6.35-15.95,11.87l-6.21,11.86-9.18-4.81-9.19-4.81,6.21-11.86c2.89-5.52-4.11-10.72.68-19.87S302.55,22.46,311,26.86Z"/><path class="cls-9" d="M294.76,36.57c1.06.55,1.17,1.81,2.17,2.34s4-3.93,8.54-1.56,2.4,7.29,3.57,7.9,2.32,0,3.16.45a1.82,1.82,0,0,1,.88,2.65c-.68,1.3-16.67,6.28-23,18.33,6.31-12.05,1.62-28.63,2-29.32A2.09,2.09,0,0,1,294.76,36.57Z"/><ellipse class="cls-10" cx="287.06" cy="72.49" rx="6.39" ry="7.12" transform="translate(89.65 293.15) rotate(-62.36)"/><rect class="cls-11" x="283.87" y="57.7" width="10.51" height="21.69" transform="translate(94.26 292.87) rotate(-62.36)"/><path class="cls-12" d="M319.71,51.06c-4.78,9.14-13,6.35-15.94,11.87l-3,5.81.42.22-4.88,9.31-3.35-1.75a6.89,6.89,0,0,1-8.74,1.72L311,27C319.39,31.39,324.48,42,319.71,51.06Z"/><path class="cls-13" d="M93.21,150.39s-6.28.83-7.31,1c-1.2.26-1.92.46-1.91,1.17,0,1,1.8,1.32,2,2.79a3.13,3.13,0,0,1-6.13,1.26c-.18-2.06,1.21-2.73,1.08-3.66-.06-.42-.92-.76-2-.59s-7.43,1.06-7.43,1.06l-1-7s-.33-2.32-1.29-2.19-1.41,1.75-2.84,1.95a2.84,2.84,0,0,1-3.51-2.68,2.79,2.79,0,0,1,2.49-3.42c1.57-.24,2.57,1.07,3.43,1,0,0,.86-.33.62-2.3s-1-7-1-7l7.31-1.05s1.84-.33,2.06.48-1.49,2-1.06,3.65a3,3,0,0,0,3.45,2.33A3.06,3.06,0,0,0,83,133.81c-.15-1.79-2-2.1-2-3,0,0-.25-.86,2.6-1.27s6.56-1,6.56-1,.76,5.11.84,5.88.56,3.45-.41,3.58-1.66-1.32-3.6-1.05-2.46,2.3-2.24,3.82A3.1,3.1,0,0,0,88,143.22c1.45-.21,1.93-1.95,2.9-2.09s1.26,2.12,1.5,3.79S93.21,150.39,93.21,150.39Z"/><path class="cls-14" d="M72.62,44.28a4.64,4.64,0,0,0-4.85-4.36,4.87,4.87,0,0,1-4.85-4.85,4.39,4.39,0,1,0-8.74,0,4.87,4.87,0,0,1-4.85,4.85,4.64,4.64,0,0,0-4.85,4.36,4.64,4.64,0,0,0,4.85,4.37,4.86,4.86,0,0,1,4.85,4.85,4.39,4.39,0,1,0,8.74,0,4.86,4.86,0,0,1,4.85-4.85A4.64,4.64,0,0,0,72.62,44.28Z"/><path class="cls-15" d="M350.35,28.94a1.55,1.55,0,0,0-1.62-1.47,1.63,1.63,0,0,1-1.63-1.62,1.47,1.47,0,1,0-2.92,0,1.63,1.63,0,0,1-1.63,1.62,1.47,1.47,0,1,0,0,2.93A1.63,1.63,0,0,1,344.18,32a1.47,1.47,0,1,0,2.92,0,1.63,1.63,0,0,1,1.63-1.62A1.55,1.55,0,0,0,350.35,28.94Z"/><path class="cls-15" d="M38.61,135.16a2.47,2.47,0,0,0-1-3.33,2.59,2.59,0,0,1-.86-3.56,2.34,2.34,0,1,0-4-2.42,2.59,2.59,0,0,1-3.55.86,2.34,2.34,0,1,0-2.43,4,2.58,2.58,0,0,1,.86,3.55,2.34,2.34,0,1,0,4,2.42,2.59,2.59,0,0,1,3.55-.86A2.47,2.47,0,0,0,38.61,135.16Z"/><path class="cls-14" d="M336.57,68.55A2.48,2.48,0,0,0,334,66.22a2.59,2.59,0,0,1-2.58-2.59,2.34,2.34,0,1,0-4.66,0,2.59,2.59,0,0,1-2.58,2.59,2.34,2.34,0,1,0,0,4.66,2.59,2.59,0,0,1,2.58,2.58,2.34,2.34,0,1,0,4.66,0A2.59,2.59,0,0,1,334,70.88,2.48,2.48,0,0,0,336.57,68.55Z"/><path class="cls-14" d="M353.14,195.12a2.48,2.48,0,0,0-2.59-2.33,2.59,2.59,0,0,1-2.58-2.58,2.34,2.34,0,1,0-4.66,0,2.59,2.59,0,0,1-2.58,2.58,2.34,2.34,0,1,0,0,4.66,2.59,2.59,0,0,1,2.58,2.58,2.34,2.34,0,1,0,4.66,0,2.59,2.59,0,0,1,2.58-2.58A2.48,2.48,0,0,0,353.14,195.12Z"/><circle class="cls-15" cx="78.76" cy="7.72" r="3.05"/><circle class="cls-14" cx="90.65" cy="28.88" r="5.87"/><circle class="cls-14" cx="359.08" cy="89.82" r="5.94" transform="translate(188.85 418.5) rotate(-76.66)"/><path class="cls-16" d="M184,96.19V96.1l-.14,0-.13,0v.09c-79.73,26.53-70.8,126.2-70.8,126.2H254.8S263.72,122.72,184,96.19Z"/><ellipse class="cls-17" cx="180.05" cy="141.39" rx="42.19" ry="65.77"/><path d="M254.8,224.5H112.93a2.11,2.11,0,0,1-2.1-1.92,168,168,0,0,1,5.6-54c4.58-16.7,11.67-31.14,21.06-42.93A95.84,95.84,0,0,1,183.34,94.1a2.13,2.13,0,0,1,1.32,0,95.55,95.55,0,0,1,45.8,31.56c9.37,11.79,16.43,26.24,21,42.93a167.87,167.87,0,0,1,5.46,54A2.11,2.11,0,0,1,254.8,224.5Zm-71.07-4.21h69.1a168.82,168.82,0,0,0-5.49-50.71c-10-36.49-31.27-60.46-63.34-71.26-32.07,10.8-53.43,34.77-63.48,71.26a169.37,169.37,0,0,0-5.62,50.71Z"/><path class="cls-16" d="M247.23,172.92c26.57,5.82,33.14,41.27,23.57,49.47H247.23"/><path d="M270.88,222.61H247.23v-.43h23.49c4-3.53,5.17-12.13,2.83-21.44-2.82-11.17-11.22-24.29-26.37-27.61l.09-.42c15.35,3.36,23.85,16.63,26.69,27.92,2.4,9.51,1.18,18.33-3,21.93Z"/><path d="M270.8,224.5H247.23a2.11,2.11,0,1,1,0-4.21H270c3.06-3.33,3.8-11,1.76-19.09C269,190.58,261.09,178.11,246.78,175a2.1,2.1,0,1,1,.9-4.11c16.18,3.54,25.13,17.46,28.11,29.3,2.61,10.35,1.19,19.7-3.62,23.82A2.09,2.09,0,0,1,270.8,224.5Z"/><path class="cls-16" d="M120.5,172.92c-26.57,5.82-33.14,41.27-23.57,49.47H120.5"/><path d="M120.5,222.61H96.85l-.06-.05c-4.2-3.6-5.42-12.42-3-21.93,2.85-11.29,11.35-24.56,26.69-27.92l.1.42C105.4,176.45,97,189.57,94.18,200.74c-2.34,9.31-1.2,17.91,2.83,21.44H120.5Z"/><path d="M120.5,224.5H96.93a2.09,2.09,0,0,1-1.37-.51c-4.81-4.12-6.23-13.47-3.63-23.82,3-11.84,11.94-25.76,28.12-29.3A2.1,2.1,0,0,1,121,175c-14.31,3.13-22.26,15.6-24.94,26.22-2,8.1-1.3,15.76,1.76,19.09H120.5a2.11,2.11,0,0,1,0,4.21Z"/><path class="cls-17" d="M96.66,222.39s-23.27-1.29-17.82-33.65c5.17-30.66,37.08-17.58,33.51,8.27,0,0-2.31,25.38,7.88,25.38"/><path d="M112.35,197a42.63,42.63,0,0,0-1.49-8.15,27.74,27.74,0,0,0-3.22-7.1,19.4,19.4,0,0,0-5.1-5.45,17.13,17.13,0,0,0-3.16-1.8l-.84-.3-.42-.15-.43-.11-.85-.21-.86-.13-.43-.07c-.14,0-.29,0-.43,0l-.86,0-.84.07-.42,0-.42.09-.82.16-.8.27-.4.12-.38.19-.77.35a14,14,0,0,0-4.94,5,25.52,25.52,0,0,0-2.82,7.11l-.42,1.94c-.14.64-.21,1.33-.32,2s-.21,1.33-.26,2-.15,1.34-.19,2a38.9,38.9,0,0,0,.18,7.94,24.1,24.1,0,0,0,2.08,7.38,16.41,16.41,0,0,0,.9,1.65,18.28,18.28,0,0,0,1,1.56A19.22,19.22,0,0,0,87.2,216a18.5,18.5,0,0,0,6.56,3.55c.6.18,1.21.34,1.82.46l.89.14.21,0h4.85l8.4,0,16.82,0a2.11,2.11,0,0,1,0,4.21l-16.88,0-8.44,0H96.28l-.32,0c-.41,0-.8-.11-1.19-.17-.77-.15-1.52-.33-2.27-.55a22.75,22.75,0,0,1-8.18-4.34,23.09,23.09,0,0,1-3.25-3.38,24,24,0,0,1-2.45-4,29,29,0,0,1-2.54-8.74,44.09,44.09,0,0,1-.27-8.88c0-.73.13-1.45.2-2.18s.16-1.45.26-2.17.19-1.43.33-2.16l.43-2.19a31,31,0,0,1,3.22-8.54,18.4,18.4,0,0,1,6.71-6.9,15.29,15.29,0,0,1,9.72-1.73c.41.07.82.13,1.22.21l1.18.33.59.18.56.22,1.13.45a19.48,19.48,0,0,1,4,2.51,21.72,21.72,0,0,1,6.94,24.5Z"/><path class="cls-17" d="M270.52,222.39s23.27-1.29,17.82-33.65c-5.17-30.66-37.08-17.58-33.51,8.27,0,0,2.31,25.38-7.88,25.38"/><path d="M254.75,197a21.67,21.67,0,0,1,1.13-17.42c.37-.68.78-1.34,1.19-2,.22-.32.45-.63.68-.94a10.92,10.92,0,0,1,.73-.92,20,20,0,0,1,1.6-1.72l.86-.82.92-.74A19.56,19.56,0,0,1,266,170l1.13-.45a5.59,5.59,0,0,1,.57-.22l.59-.17,1.18-.33,1.22-.2a15.62,15.62,0,0,1,9.76,1.74,18.57,18.57,0,0,1,6.76,6.91,31,31,0,0,1,3.26,8.58l.43,2.2c.14.73.22,1.45.33,2.18l.16,1.08c0,.37.07.73.11,1.1.06.73.15,1.46.19,2.2a43.07,43.07,0,0,1-.29,8.92,31.38,31.38,0,0,1-1,4.46c-.2.74-.49,1.46-.73,2.19l-.46,1.07c-.16.35-.31.71-.5,1.05l-.54,1c-.19.34-.41.67-.61,1l-.31.5-.35.48c-.23.31-.46.63-.7.94a22.79,22.79,0,0,1-3.31,3.35,23.08,23.08,0,0,1-8.28,4.26c-.75.21-1.51.38-2.29.52l-1.19.17a11.11,11.11,0,0,1-1.23,0h-4.24l-8.49,0-17,0a2.11,2.11,0,0,1,0-4.21l16.91,0,8.45,0h4.22c.34,0,.78,0,.89,0,.29,0,.59-.08.9-.13.61-.12,1.23-.26,1.83-.44a18,18,0,0,0,9.26-6.18c.19-.25.36-.51.55-.76l.27-.38.24-.4c.16-.27.34-.54.49-.81l.43-.84a6.85,6.85,0,0,0,.4-.87l.37-.88c.2-.61.44-1.2.6-1.82a25.89,25.89,0,0,0,.79-3.82,38.47,38.47,0,0,0,.21-8c0-.67-.13-1.35-.2-2,0-.34-.06-.67-.1-1l-.16-1c-.11-.67-.18-1.35-.32-2l-.42-2a25.77,25.77,0,0,0-2.85-7.14,14,14,0,0,0-5-5l-.78-.36-.38-.18-.41-.13-.8-.27-.84-.16-.42-.09c-.14,0-.28,0-.42,0l-.86-.07-.86,0h-.43l-.44.07-.87.12-.86.22-.43.1-.42.15-.85.3-.82.38a7.91,7.91,0,0,0-.82.42,17,17,0,0,0-1.56,1,19.78,19.78,0,0,0-5.18,5.44,27.28,27.28,0,0,0-3.27,7.11A41.41,41.41,0,0,0,254.75,197Z"/><g class="cls-18"><path d="M289.45,195.16s-1.66-12.23-5-17.8c0,0,10.58,23.11-2.84,33.84-17.53,14-28.91-10.77-26.52-21.66,0,0-2.58,6.61-1.7,13.09.8,5.94-3.49,11.43-24.67,8.52l-2.28-.31a313.49,313.49,0,0,0-85.34,0l-2.28.31c-21.19,2.91-25.47-2.58-24.67-8.52.88-6.48-1.7-13.09-1.7-13.09,2.38,10.89-9,35.68-26.52,21.66-13.42-10.73-2.84-33.84-2.84-33.84-3.38,5.57-5,17.8-5,17.8-2.5,24.77,18.65,27.23,18.65,27.23H270.8S292,219.93,289.45,195.16Z"/></g><ellipse class="cls-19" cx="93.8" cy="198.48" rx="5.92" ry="8.12" transform="translate(-16.62 8.74) rotate(-4.9)"/><ellipse class="cls-19" cx="86.71" cy="189.67" rx="1.97" ry="2.7" transform="translate(-15.89 8.11) rotate(-4.9)"/><ellipse class="cls-19" cx="98.9" cy="188.62" rx="1.97" ry="2.7" transform="matrix(1, -0.09, 0.09, 1, -15.76, 9.14)"/><ellipse class="cls-19" cx="91.98" cy="184.42" rx="2.7" ry="3.7" transform="translate(-15.43 8.54) rotate(-4.9)"/><ellipse class="cls-19" cx="272.38" cy="198.48" rx="8.12" ry="5.92" transform="translate(51.35 452.9) rotate(-85.1)"/><ellipse class="cls-19" cx="279.47" cy="189.67" rx="2.7" ry="1.97" transform="translate(66.61 451.91) rotate(-85.1)"/><ellipse class="cls-19" cx="267.29" cy="188.62" rx="2.7" ry="1.97" transform="matrix(0.09, -1, 1, 0.09, 56.51, 438.81)"/><ellipse class="cls-19" cx="274.2" cy="184.42" rx="3.7" ry="2.7" transform="translate(67.02 441.85) rotate(-85.1)"/><path class="cls-16" d="M253,57.15s12.33-43.65,0-52.92-37.86,15.06-37.86,15.06c-17-8.23-31.15-7.24-31.15-7.24s-14.17-1-31.15,7.24c0,0-25.53-24.33-37.86-15.06s0,52.92,0,52.92h0a139.14,139.14,0,0,0-11.83,30.6,37.63,37.63,0,0,0,4.2,29.28c9.23,15.13,30.47,32.26,76.64,32.08,46.17.18,67.41-17,76.64-32.08a37.67,37.67,0,0,0,4.2-29.28A139.64,139.64,0,0,0,253,57.15"/><path class="cls-20" d="M143,25S129.2,12.12,123,16.8s.16,27.48.16,27.48A84.05,84.05,0,0,1,143,25Z"/><path class="cls-20" d="M224.92,25S238.74,12.12,245,16.8s-.16,27.48-.16,27.48A84.43,84.43,0,0,0,224.92,25Z"/><g class="cls-21"><path class="cls-17" d="M102.38,91.4c-6.78,59.23,39.41,72.35,81.35,72.35S275,141.48,265.08,91.4c-15.27-4.91-26.63,4.27-34.54,8.72s-12.73-5.81-23.91-12a48.63,48.63,0,0,0-45.8,0c-11.18,6.18-16,16.45-23.91,12S117.65,86.49,102.38,91.4Z"/><g class="cls-22"><path class="cls-15" d="M253,5.43C240.68-3.84,215.15,20.5,215.15,20.5c-17-8.24-31.15-7.25-31.15-7.25s-14.17-1-31.15,7.25c0,0-25.53-24.34-37.86-15.07-4.51,3.39-5.72,11.37-5.44,20.13.24-6.93,1.71-12.88,5.44-15.68C127.32.6,152.85,24.94,152.85,24.94a72.91,72.91,0,0,1,24.05-7,2.69,2.69,0,0,0-.65,1.67c0,2.88,5.44,5.2,12.14,5.2s12.14-2.32,12.14-5.2h0a74.4,74.4,0,0,1,14.62,5.3S240.68.6,253,9.88c3.73,2.8,5.2,8.75,5.44,15.68C258.73,16.8,257.52,8.82,253,5.43Z"/></g><g class="cls-23"><path class="cls-17" d="M102.41,92.6C95.63,151.84,141.82,165,183.76,165S275,142.68,265.11,92.6c-15.27-4.91-26.63,4.27-34.54,8.73s-12.73-5.82-23.91-12a48.63,48.63,0,0,0-45.8,0c-11.18,6.18-16,16.45-23.91,12S117.68,87.69,102.41,92.6Z"/><g class="cls-18"><path d="M260.64,101.57c-9.23,15.12-30.47,32.25-76.64,32.07-46.17.18-67.41-16.95-76.64-32.07a37.06,37.06,0,0,1-4.53-11.22,37.62,37.62,0,0,0,4.53,27.89c9.23,15.12,30.47,32.25,76.64,32.07,46.17.18,67.41-16.95,76.64-32.07a37.62,37.62,0,0,0,4.53-27.89A37.32,37.32,0,0,1,260.64,101.57Z"/></g></g></g><path class="cls-15" d="M199.85,103.24c-.53,5.25-3.86,7.84-8.63,7.29A8,8,0,0,1,184,104h-.11a8,8,0,0,1-7.19,6.54c-4.78.55-8.11-2-8.63-7.29"/><path d="M175.5,110.83a7.47,7.47,0,0,1-4.78-1.55,8.63,8.63,0,0,1-2.86-6,.22.22,0,0,1,.2-.24.22.22,0,0,1,.25.2,8.08,8.08,0,0,0,2.7,5.71,7.49,7.49,0,0,0,5.68,1.38,7.73,7.73,0,0,0,7-6.37.23.23,0,0,1,.22-.18H184a.23.23,0,0,1,.22.18,7.74,7.74,0,0,0,7,6.37,7.51,7.51,0,0,0,5.69-1.38,8.12,8.12,0,0,0,2.69-5.71.23.23,0,0,1,.25-.2.21.21,0,0,1,.2.24,8.55,8.55,0,0,1-2.86,6,7.9,7.9,0,0,1-6,1.47,8.06,8.06,0,0,1-7.22-6,8.06,8.06,0,0,1-7.22,6A10.76,10.76,0,0,1,175.5,110.83Z"/><g class="cls-18"><path d="M199.85,103.24c-.53,5.25-3.85,7.84-8.63,7.29A8,8,0,0,1,184,104h-.11a8,8,0,0,1-7.19,6.54c-4.78.55-8.11-2-8.63-7.29h1.41c1.49,2.28,4,3.31,7.22,2.94a7.84,7.84,0,0,0,5.55-2.94h3.4a7.84,7.84,0,0,0,5.55,2.94c3.18.37,5.72-.66,7.22-2.94Z"/></g><path d="M175.5,112.13a8.76,8.76,0,0,1-5.6-1.83,9.85,9.85,0,0,1-3.34-6.91,1.53,1.53,0,0,1,3.05-.3,6.85,6.85,0,0,0,2.22,4.82,6.22,6.22,0,0,0,4.72,1.1,6.39,6.39,0,0,0,5.86-5.34,1.54,1.54,0,0,1,1.5-1.21H184a1.52,1.52,0,0,1,1.5,1.21,6.39,6.39,0,0,0,5.87,5.34,6.22,6.22,0,0,0,4.72-1.1,6.89,6.89,0,0,0,2.22-4.82,1.53,1.53,0,0,1,3,.3A9.81,9.81,0,0,1,198,110.3,10.1,10.1,0,0,1,184,107.82a9.26,9.26,0,0,1-7.08,4.23A11,11,0,0,1,175.5,112.13Z"/><path d="M184,105.16a1.52,1.52,0,0,1-1.53-1.53V96a1.53,1.53,0,0,1,3.06,0v7.61A1.53,1.53,0,0,1,184,105.16Z"/><path d="M193.71,94.58c0,3.17-4.53,7.42-10.12,7.42s-10.12-4.25-10.12-7.42,4.53-3.44,10.12-3.44S193.71,91.41,193.71,94.58Z"/><path class="cls-15" d="M188,93.67c0,.7-2,1.63-4.39,1.63s-4.39-.93-4.39-1.63,2-.75,4.39-.75S188,93,188,93.67Z"/><path d="M183.57,95.51c-2.36,0-4.6-.9-4.6-1.84s1.82-1,4.6-1,4.6.07,4.6,1S185.93,95.51,183.57,95.51Zm0-2.39c-1.36,0-4.19,0-4.19.55s1.77,1.43,4.19,1.43,4.19-.94,4.19-1.43S184.93,93.12,183.57,93.12Z"/><path d="M184.68,151.22H184c-21.17.09-39.06-3.46-53.11-10.52-11-5.56-19.57-13.15-25.32-22.56a39.94,39.94,0,0,1-4.44-30.92,143.61,143.61,0,0,1,11.62-30.32,178.83,178.83,0,0,1-4.46-22.46c-2.15-16.82-.32-27.55,5.44-31.88s14.6-3.09,25.93,4A101.7,101.7,0,0,1,153.2,16.78c16-7.39,29.15-6.93,30.77-6.84,1.61-.09,14.78-.55,30.77,6.84A101.7,101.7,0,0,1,228.32,6.5c11.32-7,20.05-8.37,25.92-3.95s7.6,15.06,5.45,31.88a180.75,180.75,0,0,1-4.46,22.46,143.6,143.6,0,0,1,11.61,30.32,39.9,39.9,0,0,1-4.44,30.92c-5.74,9.41-14.26,17-25.31,22.56C223.19,147.67,205.56,151.21,184.68,151.22ZM184,147h.72c45.58,0,65.47-16.87,74.13-31.07a35.73,35.73,0,0,0,4-27.65,138.85,138.85,0,0,0-11.62-30.08,2.11,2.11,0,0,1-.2-1.64c3.31-11.75,9.92-43.77.76-50.66-8.95-6.72-28.41,8.48-35.15,14.9a2.08,2.08,0,0,1-2.37.37c-16.22-7.86-29.95-7-30.09-7h-.29c-.13,0-13.86-.83-30.09,7a2.09,2.09,0,0,1-2.36-.36c-6.75-6.43-26.21-21.63-35.15-14.91-9.17,6.9-2.56,38.91.76,50.66a2.09,2.09,0,0,1-.21,1.64,138.33,138.33,0,0,0-11.61,30.08,35.73,35.73,0,0,0,4,27.65c8.67,14.2,28.57,31.07,74.12,31.07Z"/><ellipse class="cls-17" cx="156.86" cy="51.82" rx="10.59" ry="6.08"/><ellipse class="cls-17" cx="211.09" cy="51.82" rx="10.59" ry="6.08"/><polygon class="cls-19" points="183.99 96.18 184 96.19 184 96.1 183.99 96.1 183.99 96.18"/><polygon class="cls-19" points="183.74 96.18 183.74 96.1 183.73 96.1 183.73 96.19 183.74 96.18"/><path d="M152.05,102.83a25.67,25.67,0,1,1,25.67-25.67A25.7,25.7,0,0,1,152.05,102.83Zm0-47.89a22.22,22.22,0,1,0,22.22,22.22A22.24,22.24,0,0,0,152.05,54.94Z"/><path d="M216.2,102.83a25.67,25.67,0,1,1,25.66-25.67A25.7,25.7,0,0,1,216.2,102.83Zm0-47.89a22.22,22.22,0,1,0,22.22,22.22A22.25,22.25,0,0,0,216.2,54.94Z"/><path d="M195.89,66.2a1.72,1.72,0,0,1-1.39-.71A13,13,0,0,0,184,60.13a12.86,12.86,0,0,0-10.38,5.2,1.72,1.72,0,1,1-2.76-2.06,16.4,16.4,0,0,1,26.42.19,1.73,1.73,0,0,1-1.4,2.74Z"/><ellipse cx="210.41" cy="77.54" rx="9.29" ry="12.83" transform="translate(-5.38 16.55) rotate(-4.45)"/><ellipse class="cls-15" cx="207.88" cy="75.71" rx="2.81" ry="4.31" transform="translate(-5.24 16.35) rotate(-4.45)"/><ellipse cx="157.4" cy="77.54" rx="12.83" ry="9.29" transform="translate(67.89 228.45) rotate(-85.55)"/><ellipse class="cls-15" cx="159.92" cy="75.71" rx="4.31" ry="2.81" transform="translate(72.04 229.28) rotate(-85.55)"/><path class="cls-17" d="M125.47,114.5l7.09-3.93s46.89,3.88,51.44,23.63Z"/><path d="M184.29,134.53l-59.35-20,7.57-4.2h.07a147,147,0,0,1,24,4.41c11.27,3.16,25.21,9.08,27.58,19.39ZM126,114.45l57.7,19.43c-4.89-18.72-49.12-22.91-51.1-23.09Z"/><path d="M184.29,134.53l-59.35-20,7.57-4.2h.07a147,147,0,0,1,24,4.41c11.27,3.16,25.21,9.08,27.58,19.39ZM126,114.45l57.7,19.43c-4.89-18.72-49.12-22.91-51.1-23.09Z"/><path d="M184,136.31a2.19,2.19,0,0,1-.67-.11L124.8,116.49a2.1,2.1,0,0,1-.35-3.83l7.09-3.93a2.06,2.06,0,0,1,1.19-.25c2,.16,48.48,4.24,53.32,25.25a2.11,2.11,0,0,1-2.05,2.58ZM130.66,114l49.6,16.7c-4.37-6.86-15.18-11.18-24.2-13.71A144.21,144.21,0,0,0,133,112.73Z"/><path class="cls-17" d="M242.53,114.5l-7.09-3.93S188.55,114.45,184,134.2Z"/><path d="M183.7,134.53l.09-.37c2.37-10.31,16.31-16.23,27.58-19.39a146.84,146.84,0,0,1,24-4.41h.07l7.57,4.2Zm51.69-23.74c-2,.18-46.2,4.37-51.09,23.09L242,114.45Z"/><path d="M184,136.31a2.07,2.07,0,0,1-1.41-.55,2.09,2.09,0,0,1-.64-2c4.84-21,51.34-25.09,53.32-25.25a2.07,2.07,0,0,1,1.19.25l7.09,3.93a2.1,2.1,0,0,1-.35,3.83L184.67,136.2A2.24,2.24,0,0,1,184,136.31Zm51-23.58A144,144,0,0,0,211.94,117c-9,2.53-19.83,6.85-24.2,13.71L237.33,114Z"/><polygon class="cls-24" points="183.73 134.21 183.73 209.1 125.05 189.47 119.95 112.39 183.73 134.21"/><path d="M183.94,209.4l-59.1-19.78v-.14l-5.11-77.4,64.22,22Zm-58.69-20.09,58.26,19.49V134.36L120.19,112.7Z"/><g class="cls-18"><path d="M125.42,146.09l-2.15-32.56L120,112.39,125,189.47l58.69,19.63V205l-17.31-5.79A60.24,60.24,0,0,1,125.42,146.09Z"/></g><g class="cls-22"><polygon class="cls-15" points="119.95 112.39 120.32 117.87 183.73 139.56 183.73 134.21 119.95 112.39"/></g><path d="M183.94,209.4l-59.1-19.78v-.14l-5.11-77.4,64.22,22Zm-58.69-20.09,58.26,19.49V134.36L120.19,112.7Z"/><path d="M183.73,211.2a2,2,0,0,1-.67-.11l-58.68-19.63A2.09,2.09,0,0,1,123,189.6l-5.09-77.07a2.1,2.1,0,0,1,2.78-2.13l63.77,21.81a2.12,2.12,0,0,1,1.42,2v74.9a2.09,2.09,0,0,1-.87,1.7A2.05,2.05,0,0,1,183.73,211.2Zm-56.68-23.28,54.58,18.26V135.71L122.26,115.4Z"/><polygon class="cls-24" points="184 134.21 184 209.1 242.68 189.47 247.77 112.39 184 134.21"/><path d="M183.78,209.4V134.05l64.23-22-5.12,77.54Zm.43-75V208.8l58.27-19.49,5.06-76.61Z"/><g class="cls-22"><polygon class="cls-15" points="184 134.21 184 141.24 242.98 121.06 243.63 175.14 247.77 112.39 184 134.21"/></g><path d="M183.78,209.4V134.05l64.23-22-5.12,77.54Zm.43-75V208.8l58.27-19.49,5.06-76.61Z"/><path d="M184,211.2a2,2,0,0,1-1.23-.4,2.09,2.09,0,0,1-.87-1.7V134.2a2.12,2.12,0,0,1,1.42-2l63.77-21.81a2.1,2.1,0,0,1,2.78,2.13l-5.09,77.07a2.09,2.09,0,0,1-1.43,1.86l-58.68,19.63A2,2,0,0,1,184,211.2Zm2.1-75.49v70.47l54.58-18.26,4.79-72.52Z"/><rect class="cls-25" x="177.43" y="134.2" width="13.08" height="74.89"/><path d="M190.73,209.31H177.21V134h13.52Zm-13.09-.43h12.65V134.42H177.64Z"/><rect class="cls-24" x="177.43" y="132.85" width="13.08" height="76.25"/><path d="M190.73,209.31H177.21V132.63h13.52Zm-13.09-.43h12.65V133.07H177.64Z"/><g class="cls-22"><rect class="cls-15" x="185.76" y="132.85" width="4.75" height="76.25"/></g><g class="cls-18"><path d="M181,199.6V132.85h-3.57V209.1h13.08v-5.69h-5.69A3.82,3.82,0,0,1,181,199.6Z"/></g><path d="M190.51,211.2H177.43a2.1,2.1,0,0,1-2.11-2.1V132.85a2.1,2.1,0,0,1,2.11-2.1h13.08a2.1,2.1,0,0,1,2.1,2.1V209.1A2.1,2.1,0,0,1,190.51,211.2Zm-11-4.21h8.88V135h-8.88Z"/><path class="cls-15" d="M223.79,182.81a3.08,3.08,0,0,1-5.94-1.61,3.28,3.28,0,0,1,.28-.78h0a2,2,0,0,1,.19-.31c0-.06,0-.13-.05-.14l-12.85-4.15a.09.09,0,0,0-.12.09,2.31,2.31,0,0,1,0,.37h0a3.34,3.34,0,0,1-.22.79,3.09,3.09,0,0,1-5.77-2.17,3.15,3.15,0,0,1,.37-.76,3,3,0,0,1,1.88-1.3.09.09,0,0,0,.05-.15,3.06,3.06,0,0,1-.73-2.54,3.31,3.31,0,0,1,.15-.58,3.1,3.1,0,0,1,3.86-1.84,3.07,3.07,0,0,1,2,3.87,2.79,2.79,0,0,1-.4.81.1.1,0,0,0,0,.14l12.85,4.15a.1.1,0,0,0,.12-.09,3.28,3.28,0,0,1,.25-1.17,3.09,3.09,0,1,1,3.52,4.23.08.08,0,0,0-.05.14A3.07,3.07,0,0,1,223.79,182.81Z"/><ellipse class="cls-17" cx="242.26" cy="154.26" rx="18.36" ry="21.27" transform="translate(-40.08 101.62) rotate(-21.93)"/><g class="cls-18"><path d="M226,153.11c4.2,10.44,14.91,16,23.91,12.33,5.83-2.34,9.51-7.94,10.26-14.42.95,8.45-3,16.43-10.26,19.35-9,3.63-19.71-1.89-23.91-12.33a22.66,22.66,0,0,1-1.55-11A23.49,23.49,0,0,0,226,153.11Z"/></g><path d="M244.2,177.25c-8.58,0-17.13-5.91-20.92-15.35a25,25,0,0,1-.67-17.42,18.74,18.74,0,0,1,27-10.89A25.83,25.83,0,0,1,261.91,164,19.16,19.16,0,0,1,251,175.94,18.09,18.09,0,0,1,244.2,177.25Zm-3.84-41.78a14.18,14.18,0,0,0-5.26,1,15,15,0,0,0-8.51,9.36,20.86,20.86,0,0,0,.59,14.49h0c3.94,9.8,13.92,15.06,22.24,11.71a15,15,0,0,0,8.51-9.36,21.62,21.62,0,0,0-10.21-25.35A16,16,0,0,0,240.36,135.47Z"/><path d="M242.45,161.62a4.86,4.86,0,0,1-.46,1.61,9.12,9.12,0,0,1-.87,1.48,13.69,13.69,0,0,1-2.4,2.53c-.44.4-.92.71-1.4,1.07s-1,.64-1.47,1-1,.58-1.53.85l-1.58.77a2.42,2.42,0,1,1-2.12-4.34,2.29,2.29,0,0,1,.83-.23h.08l1.52-.14c.51-.06,1-.15,1.52-.22s1-.2,1.49-.32,1-.25,1.46-.43a11.9,11.9,0,0,0,2.76-1.33,8.12,8.12,0,0,0,1.22-1A4.85,4.85,0,0,0,242.45,161.62Z"/><path d="M234.41,151.61a14.38,14.38,0,0,1-1.42,2.61,17.82,17.82,0,0,1-4.33,4.46,18.52,18.52,0,0,1-2.83,1.68h0a2.42,2.42,0,1,1-2.15-4.34,2.48,2.48,0,0,1,1-.25,14,14,0,0,0,2.54-.3,14.34,14.34,0,0,0,2.54-.8,15.2,15.2,0,0,0,2.46-1.29A13.66,13.66,0,0,0,234.41,151.61Z"/><ellipse class="cls-17" cx="125.47" cy="154.26" rx="21.27" ry="18.36" transform="translate(-64.48 213.05) rotate(-68.07)"/><g class="cls-18"><path d="M141.78,153.11c-4.2,10.44-14.91,16-23.92,12.33-5.82-2.34-9.51-7.94-10.25-14.42-1,8.45,3,16.43,10.25,19.35,9,3.63,19.72-1.89,23.92-12.33a22.78,22.78,0,0,0,1.55-11A23.49,23.49,0,0,1,141.78,153.11Z"/></g><path d="M123.53,177.25a18.09,18.09,0,0,1-6.79-1.31c-10.47-4.21-15.07-17.36-10.25-29.32a25,25,0,0,1,11.59-13,19.18,19.18,0,0,1,16.12-1c10.46,4.21,15.06,17.37,10.25,29.32h0C140.65,171.34,132.11,177.25,123.53,177.25Zm3.84-41.78a16.07,16.07,0,0,0-7.37,1.86,20.86,20.86,0,0,0-9.61,10.86c-4,9.8-.39,20.5,7.92,23.85s18.29-1.91,22.24-11.71h0c3.95-9.8.39-20.5-7.92-23.85A14.22,14.22,0,0,0,127.37,135.47Zm15.13,25.65Z"/><path d="M125.28,161.62a4.45,4.45,0,0,0,1,1.28,8,8,0,0,0,1.21,1,12.17,12.17,0,0,0,2.77,1.33c.46.18,1,.29,1.46.43s1,.22,1.49.32,1,.16,1.52.22l1.52.14h.07a2.42,2.42,0,0,1-.44,4.81,2.69,2.69,0,0,1-.85-.24l-1.57-.77c-.52-.27-1-.57-1.53-.85s-1-.63-1.48-1-1-.67-1.39-1.07a13.69,13.69,0,0,1-2.4-2.53,8.45,8.45,0,0,1-.87-1.48A4.63,4.63,0,0,1,125.28,161.62Z"/><path d="M133.32,151.61a14,14,0,0,0,2.25,1.77,15.72,15.72,0,0,0,2.47,1.29,14.34,14.34,0,0,0,2.54.8,14,14,0,0,0,2.54.3,2.42,2.42,0,0,1-.25,4.84,2.29,2.29,0,0,1-.94-.24h0a18.52,18.52,0,0,1-2.83-1.68,16.6,16.6,0,0,1-2.4-2.08,16.08,16.08,0,0,1-1.93-2.38A14.38,14.38,0,0,1,133.32,151.61Z"/></g></g></svg>